<?xml version="1.0" encoding="UTF-8"?>
<svg id="Layer_2" data-name="Layer 2" xmlns="http://www.w3.org/2000/svg" xmlns:xlink="http://www.w3.org/1999/xlink" viewBox="0 0 261.62 261.62">
  <defs>
    <style>
      .cls-1 {
        stroke-width: .48px;
      }

      .cls-1, .cls-2 {
        fill: #231f20;
      }

      .cls-1, .cls-2, .cls-3 {
        stroke: #231f20;
        stroke-miterlimit: 10;
      }

      .cls-4 {
        filter: url(#drop-shadow-1);
      }

      .cls-4, .cls-5, .cls-6, .cls-7, .cls-8 {
        stroke-width: 0px;
      }

      .cls-3 {
        fill: none;
        stroke-width: 11px;
      }

      .cls-5 {
        fill: #58595b;
      }

      .cls-6 {
        fill: #cc2228;
      }

      .cls-7 {
        fill: #fbd209;
      }

      .cls-8 {
        fill: #fff;
      }
    </style>
    <filter id="drop-shadow-1" filterUnits="userSpaceOnUse">
      <feOffset dx="7" dy="7"/>
      <feGaussianBlur result="blur" stdDeviation="5"/>
      <feFlood flood-color="#231f20" flood-opacity=".75"/>
      <feComposite in2="blur" operator="in"/>
      <feComposite in="SourceGraphic"/>
    </filter>
  </defs>
  <g id="Layer_1-2" data-name="Layer 1">
    <g>
      <g>
        <g>
          <path class="cls-5" d="m238.21,155.32c1.4-6.18,2.28-12.48,2.62-18.81l1.63.08c-.35,6.42-1.24,12.81-2.66,19.09l-1.59-.36Z"/>
          <polygon class="cls-5" points="242.33 138.35 223.95 137.12 224.06 135.65 242.46 136.59 242.33 138.35"/>
          <path class="cls-5" d="m221.83,151.59c1.19-5.24,1.93-10.57,2.23-15.94l1.63.08c-.3,5.46-1.06,10.89-2.27,16.22l-1.59-.36Z"/>
          <polygon class="cls-5" points="236.25 154.87 221.83 151.59 222.17 150.16 236.63 153.21 236.25 154.87"/>
          <path class="cls-5" d="m238.51,140.55c-.07,1.21-.24,2.4-.39,3.6-.16,1.2-.28,2.4-.48,3.59-.44,2.38-.79,4.77-1.39,7.12l-1.59-.36c.59-2.31.93-4.67,1.37-7.01.2-1.17.31-2.36.47-3.54.15-1.18.32-2.36.39-3.55l1.63.15Z"/>
          <path class="cls-5" d="m238.36,142.25l-11.35-1.19c.08-.5.09-1.01.13-1.52l11.37,1.02c-.05.57-.07,1.14-.15,1.7Z"/>
          <path class="cls-5" d="m228.77,139.68c-.08,1.53-.35,3.04-.52,4.56-.16,1.52-.47,3.02-.73,4.53l-1.61-.3c.26-1.48.56-2.95.72-4.45.16-1.49.44-2.98.51-4.48l1.63.15Z"/>
          <polygon class="cls-5" points="232.32 149.65 225.91 148.47 226.18 146.97 232.6 148.04 232.32 149.65"/>
          <path class="cls-5" d="m234.12,144.26c-.13.93-.22,1.86-.37,2.79l-.49,2.77-1.61-.3.49-2.73c.15-.91.24-1.83.37-2.75l1.62.21Z"/>
          <polygon class="cls-5" points="233.92 145.89 230.09 145.34 230.29 143.77 234.12 144.26 233.92 145.89"/>
          <path class="cls-5" d="m240.95,155.94c1.44-6.34,2.33-12.8,2.69-19.29l1.63.08c-.36,6.58-1.27,13.14-2.73,19.57l-1.59-.36Z"/>
          <path class="cls-5" d="m219.09,150.97c1.15-5.08,1.87-10.25,2.16-15.46l1.63.08c-.3,5.3-1.03,10.57-2.2,15.74l-1.59-.36Z"/>
        </g>
        <g>
          <path class="cls-5" d="m230.08,178.62c2.74-5.72,4.99-11.67,6.71-17.78l1.57.44c-1.75,6.19-4.03,12.24-6.81,18.04l-1.47-.71Z"/>
          <polygon class="cls-5" points="237.89 162.99 220.24 157.69 220.64 156.28 238.37 161.29 237.89 162.99"/>
          <path class="cls-5" d="m214.96,171.33c2.32-4.85,4.22-9.89,5.68-15.05l1.57.44c-1.49,5.26-3.42,10.39-5.78,15.32l-1.47-.71Z"/>
          <polygon class="cls-5" points="228.27 177.75 214.96 171.33 215.57 169.98 228.98 176.19 228.27 177.75"/>
          <path class="cls-5" d="m233.66,164.28l-1.16,3.44c-.42,1.13-.88,2.25-1.32,3.38l-.67,1.69-.74,1.66-1.5,3.3-1.47-.71,1.47-3.25.73-1.63.66-1.66c.43-1.11.89-2.21,1.3-3.33l1.15-3.38,1.55.51Z"/>
          <polygon class="cls-5" points="233.11 165.9 222.31 162.2 222.8 160.75 233.66 164.28 233.11 165.9"/>
          <path class="cls-5" d="m224.36,161.26c-.94,2.91-2.04,5.76-3.23,8.57l-1.5-.65c1.18-2.76,2.26-5.57,3.18-8.43l1.55.51Z"/>
          <path class="cls-5" d="m225.6,171.77l-5.98-2.59c.22-.46.42-.93.6-1.4l6.02,2.49c-.19.51-.41,1.01-.64,1.5Z"/>
          <path class="cls-5" d="m228.58,166.93c-.7,1.74-1.34,3.51-2.1,5.22l-1.5-.65c.75-1.69,1.38-3.43,2.07-5.14l1.53.57Z"/>
          <polygon class="cls-5" points="227.98 168.46 224.38 167.06 224.96 165.59 228.58 166.93 227.98 168.46"/>
          <path class="cls-5" d="m232.62,179.85c2.81-5.87,5.12-11.97,6.89-18.23l1.57.44c-1.79,6.35-4.13,12.55-6.99,18.5l-1.47-.71Z"/>
          <path class="cls-5" d="m212.43,170.1c2.25-4.7,4.09-9.59,5.51-14.59l1.57.44c-1.44,5.1-3.32,10.08-5.61,14.86l-1.47-.71Z"/>
        </g>
        <g>
          <path class="cls-5" d="m216.92,199.49c3.95-4.95,7.51-10.22,10.54-15.79l1.43.79c-3.08,5.65-6.69,11-10.7,16.03l-1.28-1.02Z"/>
          <polygon class="cls-5" points="228.02 186.01 212.01 176.9 212.74 175.62 228.9 184.48 228.02 186.01"/>
          <path class="cls-5" d="m203.8,189.01c3.35-4.2,6.38-8.67,8.94-13.39l1.43.79c-2.61,4.8-5.69,9.35-9.1,13.62l-1.28-1.02Z"/>
          <polygon class="cls-5" points="215.35 198.23 203.8 189.01 204.71 187.85 216.4 196.89 215.35 198.23"/>
          <path class="cls-5" d="m223.63,186.33c-2.54,4.11-5.21,8.15-8.28,11.9l-1.28-1.02c3.02-3.68,5.65-7.67,8.15-11.72l1.4.84Z"/>
          <path class="cls-5" d="m222.73,187.79l-9.7-6.02c.28-.43.56-.85.8-1.3l9.79,5.87c-.27.5-.59.97-.89,1.45Z"/>
          <path class="cls-5" d="m215.24,181.31c-.78,1.32-1.64,2.58-2.45,3.88-.83,1.29-1.76,2.5-2.63,3.76l-1.32-.97c.86-1.24,1.77-2.43,2.58-3.69.8-1.27,1.65-2.52,2.41-3.81l1.4.84Z"/>
          <polygon class="cls-5" points="214.09 191.82 208.84 187.97 209.73 186.73 215.04 190.5 214.09 191.82"/>
          <path class="cls-5" d="m218.06,187.76c-.98,1.6-2.13,3.09-3.2,4.63l-1.32-.97c1.05-1.52,2.19-2.98,3.15-4.56l1.37.89Z"/>
          <polygon class="cls-5" points="217.17 189.14 213.97 186.98 214.83 185.65 218.06 187.76 217.17 189.14"/>
          <path class="cls-5" d="m219.12,201.24c4.05-5.08,7.7-10.49,10.81-16.2l1.43.79c-3.16,5.79-6.86,11.28-10.97,16.43l-1.28-1.02Z"/>
          <path class="cls-5" d="m201.6,187.25c3.25-4.07,6.18-8.41,8.67-12.99l1.43.79c-2.53,4.66-5.52,9.07-8.83,13.22l-1.28-1.02Z"/>
        </g>
        <g>
          <path class="cls-5" d="m199.49,216.92c4.95-3.96,9.56-8.33,13.77-13.07l1.22,1.08c-4.27,4.81-8.95,9.25-13.97,13.26l-1.02-1.28Z"/>
          <path class="cls-5" d="m213.31,206.25l-13.59-12.44c.34-.35.65-.74.98-1.1l13.79,12.22c-.39.44-.76.9-1.17,1.32Z"/>
          <path class="cls-5" d="m189.01,203.8c4.2-3.36,8.11-7.07,11.68-11.09l1.22,1.08c-3.63,4.09-7.61,7.87-11.88,11.28l-1.02-1.28Z"/>
          <polygon class="cls-5" points="198.23 215.35 189.01 203.8 190.17 202.89 199.57 214.29 198.23 215.35"/>
          <path class="cls-5" d="m208.92,205.57c-1.63,1.78-3.43,3.41-5.17,5.08-.89.81-1.82,1.59-2.73,2.39l-1.37,1.19-1.42,1.12-1.02-1.28,1.4-1.11,1.35-1.17c.9-.78,1.81-1.55,2.69-2.35,1.71-1.65,3.48-3.25,5.09-5.01l1.18,1.13Z"/>
          <polygon class="cls-5" points="207.74 206.81 199.62 198.78 200.68 197.68 208.92 205.57 207.74 206.81"/>
          <polygon class="cls-5" points="201.86 198.81 200.27 200.46 198.61 202.05 196.95 203.63 195.22 205.13 194.15 203.9 195.85 202.42 197.48 200.86 199.12 199.31 200.68 197.68 201.86 198.81"/>
          <polygon class="cls-5" points="198.41 208.82 194.15 203.9 195.3 202.9 199.64 207.75 198.41 208.82"/>
          <path class="cls-5" d="m203.19,205.74l-2.04,1.94c-.68.64-1.41,1.24-2.11,1.86l-1.07-1.23c.69-.61,1.41-1.2,2.08-1.83l2.01-1.91,1.14,1.18Z"/>
          <polygon class="cls-5" points="202 206.87 199.36 204.05 200.51 202.96 203.19 205.74 202 206.87"/>
          <path class="cls-5" d="m201.24,219.12c5.07-4.06,9.8-8.55,14.12-13.4l1.22,1.08c-4.38,4.93-9.17,9.48-14.32,13.6l-1.02-1.28Z"/>
          <path class="cls-5" d="m187.25,201.6c4.07-3.26,7.87-6.86,11.33-10.76l1.22,1.08c-3.53,3.97-7.39,7.63-11.53,10.95l-1.02-1.28Z"/>
        </g>
        <g>
          <path class="cls-5" d="m178.62,230.08c5.71-2.77,11.17-6.03,16.32-9.72l.95,1.33c-5.22,3.75-10.77,7.06-16.56,9.87l-.71-1.47Z"/>
          <polygon class="cls-5" points="194.45 222.71 183.95 207.57 185.15 206.72 195.89 221.69 194.45 222.71"/>
          <path class="cls-5" d="m171.33,214.96c4.83-2.35,9.46-5.11,13.83-8.24l.95,1.33c-4.44,3.19-9.15,6-14.07,8.39l-.71-1.47Z"/>
          <polygon class="cls-5" points="177.75 228.27 171.33 214.96 172.64 214.29 179.27 227.5 177.75 228.27"/>
          <path class="cls-5" d="m190.34,221.1c-4.02,2.69-8.27,5.02-12.59,7.18l-.71-1.47c4.26-2.13,8.45-4.42,12.4-7.07l.9,1.36Z"/>
          <polygon class="cls-5" points="188.91 222.02 182.76 212.39 184.05 211.57 190.34 221.1 188.91 222.02"/>
          <path class="cls-5" d="m184.95,212.93c-1.3.81-2.55,1.69-3.88,2.44-1.33.75-2.63,1.55-3.99,2.26l-.77-1.44c1.33-.69,2.61-1.48,3.92-2.22,1.31-.74,2.54-1.61,3.82-2.4l.9,1.36Z"/>
          <path class="cls-5" d="m179.38,221.93l-3.07-5.74c.46-.22.9-.47,1.34-.73l3.16,5.69c-.47.28-.94.54-1.43.78Z"/>
          <path class="cls-5" d="m184.72,220c-1.63.92-3.24,1.9-4.9,2.78l-.77-1.44c1.63-.86,3.21-1.82,4.82-2.73l.85,1.4Z"/>
          <polygon class="cls-5" points="183.3 220.82 181.35 217.49 182.72 216.7 184.72 220 183.3 220.82"/>
          <path class="cls-5" d="m179.85,232.62c5.85-2.84,11.45-6.18,16.73-9.97l.95,1.33c-5.36,3.84-11.04,7.24-16.98,10.12l-.71-1.47Z"/>
          <path class="cls-5" d="m170.1,212.43c4.69-2.28,9.17-4.96,13.41-8l.95,1.33c-4.31,3.09-8.88,5.82-13.65,8.14l-.71-1.47Z"/>
        </g>
        <g>
          <path class="cls-5" d="m155.32,238.21c6.18-1.41,12.25-3.32,18.1-5.78l.63,1.51c-5.93,2.5-12.1,4.44-18.37,5.87l-.36-1.59Z"/>
          <polygon class="cls-5" points="172.41 234.58 165.55 217.48 166.92 216.94 174.05 233.93 172.41 234.58"/>
          <path class="cls-5" d="m151.59,221.83c5.23-1.19,10.37-2.81,15.32-4.89l.63,1.51c-5.04,2.12-10.27,3.76-15.59,4.98l-.36-1.59Z"/>
          <polygon class="cls-5" points="154.87 236.25 151.59 221.83 153.03 221.5 156.53 235.86 154.87 236.25"/>
          <path class="cls-5" d="m168.76,232.1c-4.54,1.65-9.16,3.13-13.89,4.15l-.36-1.59c4.66-1,9.21-2.46,13.68-4.08l.57,1.53Z"/>
          <path class="cls-5" d="m167.16,232.68l-3.84-10.75c.48-.16.96-.33,1.43-.52l4.01,10.69c-.53.22-1.06.41-1.6.59Z"/>
          <path class="cls-5" d="m165.33,222.94c-2.87,1.05-5.77,2.01-8.72,2.8l-.43-1.58c2.9-.78,5.76-1.72,8.58-2.76l.57,1.53Z"/>
          <polygon class="cls-5" points="157.88 230.45 156.18 224.17 157.65 223.75 159.45 230.01 157.88 230.45"/>
          <path class="cls-5" d="m163.52,229.75c-1.77.64-3.59,1.1-5.39,1.62l-.43-1.58c1.77-.52,3.57-.97,5.3-1.6l.51,1.55Z"/>
          <polygon class="cls-5" points="161.96 230.28 160.81 226.59 162.31 226.08 163.52 229.75 161.96 230.28"/>
          <path class="cls-5" d="m155.94,240.95c6.34-1.44,12.57-3.41,18.57-5.93l.63,1.51c-6.08,2.56-12.4,4.55-18.84,6.02l-.36-1.59Z"/>
          <path class="cls-5" d="m150.97,219.09c5.07-1.16,10.06-2.72,14.86-4.74l.63,1.51c-4.89,2.06-9.96,3.65-15.13,4.83l-.36-1.59Z"/>
        </g>
        <g>
          <path class="cls-5" d="m130.81,240.98c6.33-.03,12.67-.57,18.91-1.65l.28,1.61c-6.34,1.09-12.77,1.64-19.19,1.67v-1.63Z"/>
          <polygon class="cls-5" points="148.26 241.24 145.41 223.04 146.86 222.78 150 240.94 148.26 241.24"/>
          <path class="cls-5" d="m130.81,224.19c5.38-.03,10.76-.49,16.05-1.4l.28,1.61c-5.39.93-10.85,1.4-16.33,1.43v-1.63Z"/>
          <polygon class="cls-5" points="130.81 238.96 130.81 224.19 132.28 224.15 132.51 238.92 130.81 238.96"/>
          <path class="cls-5" d="m145.26,237.98c-4.79.71-9.63.9-14.45.99v-1.63c4.76-.09,9.52-.27,14.24-.97l.22,1.62Z"/>
          <polygon class="cls-5" points="143.57 238.19 142.24 226.85 143.75 226.66 145.26 237.98 143.57 238.19"/>
          <path class="cls-5" d="m143.97,228.28c-3.03.43-6.08.66-9.13.8l-.07-1.63c3-.14,6.01-.36,8.98-.79l.22,1.62Z"/>
          <path class="cls-5" d="m135.03,233.96l-.26-6.51c.51-.02,1.02-.01,1.53-.06l.36,6.5c-.54.05-1.08.05-1.63.07Z"/>
          <path class="cls-5" d="m140.68,234.54c-1.87.12-3.74.34-5.62.37l-.07-1.63c1.85-.03,3.69-.25,5.53-.37l.15,1.63Z"/>
          <polygon class="cls-5" points="139.04 234.66 138.74 230.81 140.32 230.69 140.68 234.54 139.04 234.66"/>
          <path class="cls-5" d="m130.81,243.79c6.49-.03,12.99-.59,19.39-1.69l.28,1.61c-6.5,1.12-13.09,1.69-19.67,1.71v-1.63Z"/>
          <path class="cls-5" d="m130.81,221.37c5.23-.03,10.44-.48,15.57-1.36l.28,1.61c-5.23.9-10.53,1.36-15.85,1.39v-1.63Z"/>
        </g>
        <g>
          <path class="cls-5" d="m106.3,238.21c6.18,1.4,12.48,2.28,18.81,2.62l-.08,1.63c-6.42-.35-12.81-1.24-19.09-2.66l.36-1.59Z"/>
          <polygon class="cls-5" points="123.27 242.33 124.5 223.95 125.97 224.06 125.03 242.46 123.27 242.33"/>
          <path class="cls-5" d="m110.02,221.83c5.24,1.19,10.57,1.93,15.94,2.23l-.08,1.63c-5.46-.3-10.89-1.06-16.22-2.27l.36-1.59Z"/>
          <polygon class="cls-5" points="106.75 236.25 110.02 221.83 111.46 222.17 108.41 236.63 106.75 236.25"/>
          <path class="cls-5" d="m121.06,238.51c-1.21-.07-2.4-.24-3.6-.39-1.2-.16-2.4-.28-3.59-.48-2.38-.44-4.77-.79-7.12-1.39l.36-1.59c2.31.59,4.67.93,7.01,1.37,1.17.2,2.36.31,3.54.47,1.18.15,2.36.32,3.55.39l-.15,1.63Z"/>
          <path class="cls-5" d="m119.36,238.36l1.19-11.35c.5.08,1.01.09,1.52.13l-1.02,11.37c-.57-.05-1.14-.07-1.7-.15Z"/>
          <path class="cls-5" d="m121.93,228.77c-1.53-.08-3.04-.35-4.56-.52-1.52-.16-3.02-.47-4.53-.73l.3-1.61c1.48.26,2.95.56,4.45.72,1.49.16,2.98.44,4.48.51l-.15,1.63Z"/>
          <polygon class="cls-5" points="111.97 232.32 113.15 225.91 114.65 226.18 113.57 232.6 111.97 232.32"/>
          <path class="cls-5" d="m117.36,234.12c-.93-.13-1.86-.22-2.79-.37l-2.77-.49.3-1.61,2.73.49c.91.15,1.83.24,2.75.37l-.21,1.62Z"/>
          <polygon class="cls-5" points="115.73 233.92 116.28 230.09 117.85 230.29 117.36 234.12 115.73 233.92"/>
          <path class="cls-5" d="m105.68,240.95c6.34,1.44,12.8,2.33,19.29,2.69l-.08,1.63c-6.58-.36-13.14-1.27-19.57-2.73l.36-1.59Z"/>
          <path class="cls-5" d="m110.65,219.09c5.08,1.15,10.25,1.87,15.46,2.16l-.08,1.63c-5.3-.3-10.57-1.03-15.74-2.2l.36-1.59Z"/>
        </g>
        <g>
          <path class="cls-5" d="m83,230.08c5.72,2.74,11.67,4.99,17.78,6.71l-.44,1.57c-6.19-1.75-12.24-4.03-18.04-6.81l.71-1.47Z"/>
          <polygon class="cls-5" points="98.63 237.89 103.93 220.24 105.34 220.64 100.33 238.37 98.63 237.89"/>
          <path class="cls-5" d="m90.29,214.96c4.85,2.32,9.89,4.22,15.05,5.68l-.44,1.57c-5.26-1.49-10.39-3.42-15.32-5.78l.71-1.47Z"/>
          <polygon class="cls-5" points="83.87 228.27 90.29 214.96 91.63 215.57 85.42 228.98 83.87 228.27"/>
          <path class="cls-5" d="m97.33,233.66l-3.44-1.16c-1.13-.42-2.25-.88-3.38-1.32l-1.69-.67-1.66-.74-3.3-1.5.71-1.47,3.25,1.47,1.63.73,1.66.66c1.11.43,2.21.89,3.33,1.3l3.38,1.15-.51,1.55Z"/>
          <polygon class="cls-5" points="95.72 233.11 99.42 222.31 100.86 222.8 97.33 233.66 95.72 233.11"/>
          <path class="cls-5" d="m100.36,224.36c-2.91-.94-5.76-2.04-8.57-3.23l.65-1.5c2.76,1.18,5.57,2.26,8.43,3.18l-.51,1.55Z"/>
          <path class="cls-5" d="m89.85,225.6l2.59-5.98c.46.22.93.42,1.4.6l-2.49,6.02c-.51-.19-1.01-.41-1.5-.64Z"/>
          <path class="cls-5" d="m94.69,228.58c-1.74-.7-3.51-1.34-5.22-2.1l.65-1.5c1.69.75,3.43,1.38,5.14,2.07l-.57,1.53Z"/>
          <polygon class="cls-5" points="93.16 227.98 94.56 224.38 96.03 224.96 94.69 228.58 93.16 227.98"/>
          <path class="cls-5" d="m81.77,232.62c5.87,2.81,11.97,5.12,18.23,6.89l-.44,1.57c-6.35-1.79-12.55-4.13-18.5-6.99l.71-1.47Z"/>
          <path class="cls-5" d="m91.51,212.43c4.7,2.25,9.59,4.09,14.59,5.51l-.44,1.57c-5.1-1.44-10.08-3.32-14.86-5.61l.71-1.47Z"/>
        </g>
        <g>
          <path class="cls-5" d="m62.13,216.92c4.95,3.95,10.22,7.51,15.79,10.54l-.79,1.43c-5.65-3.08-11-6.69-16.03-10.7l1.02-1.28Z"/>
          <polygon class="cls-5" points="75.61 228.02 84.72 212.01 86 212.74 77.14 228.9 75.61 228.02"/>
          <path class="cls-5" d="m72.61,203.8c4.2,3.35,8.67,6.38,13.39,8.94l-.79,1.43c-4.8-2.61-9.35-5.69-13.62-9.1l1.02-1.28Z"/>
          <polygon class="cls-5" points="63.39 215.35 72.61 203.8 73.77 204.71 64.73 216.4 63.39 215.35"/>
          <path class="cls-5" d="m75.28,223.63c-4.11-2.54-8.15-5.21-11.9-8.28l1.02-1.28c3.68,3.02,7.67,5.65,11.72,8.15l-.84,1.4Z"/>
          <path class="cls-5" d="m73.83,222.73l6.02-9.7c.43.28.85.56,1.3.8l-5.87,9.79c-.5-.27-.97-.59-1.45-.89Z"/>
          <path class="cls-5" d="m80.31,215.24c-1.32-.78-2.58-1.64-3.87-2.45-1.29-.83-2.5-1.76-3.76-2.63l.97-1.32c1.24.86,2.43,1.77,3.69,2.58,1.27.8,2.52,1.65,3.81,2.41l-.84,1.4Z"/>
          <polygon class="cls-5" points="69.79 214.09 73.65 208.84 74.89 209.73 71.12 215.04 69.79 214.09"/>
          <path class="cls-5" d="m73.86,218.06c-1.6-.98-3.09-2.13-4.63-3.2l.97-1.32c1.52,1.05,2.98,2.19,4.56,3.15l-.89,1.37Z"/>
          <polygon class="cls-5" points="72.48 217.17 74.64 213.97 75.97 214.83 73.86 218.06 72.48 217.17"/>
          <path class="cls-5" d="m60.37,219.12c5.08,4.05,10.49,7.7,16.2,10.81l-.79,1.43c-5.79-3.16-11.28-6.86-16.43-10.97l1.02-1.28Z"/>
          <path class="cls-5" d="m74.37,201.6c4.07,3.25,8.41,6.18,12.99,8.67l-.79,1.43c-4.66-2.53-9.07-5.52-13.22-8.83l1.02-1.28Z"/>
        </g>
        <g>
          <path class="cls-5" d="m44.7,199.49c3.96,4.95,8.33,9.56,13.07,13.77l-1.08,1.22c-4.81-4.27-9.25-8.95-13.26-13.97l1.28-1.02Z"/>
          <path class="cls-5" d="m55.36,213.31l12.44-13.59c.35.34.74.65,1.1.97l-12.22,13.79c-.44-.39-.9-.76-1.32-1.17Z"/>
          <path class="cls-5" d="m57.82,189.01c3.36,4.2,7.07,8.11,11.09,11.68l-1.08,1.22c-4.09-3.63-7.87-7.61-11.28-11.88l1.28-1.02Z"/>
          <polygon class="cls-5" points="46.27 198.23 57.82 189.01 58.72 190.17 47.32 199.57 46.27 198.23"/>
          <path class="cls-5" d="m56.04,208.92c-1.78-1.63-3.41-3.43-5.08-5.17-.81-.89-1.59-1.82-2.39-2.73l-1.19-1.37-1.12-1.42,1.28-1.02,1.11,1.4,1.17,1.35c.78.9,1.55,1.81,2.35,2.69,1.65,1.71,3.25,3.48,5.01,5.09l-1.13,1.18Z"/>
          <polygon class="cls-5" points="54.81 207.75 62.83 199.62 63.94 200.68 56.04 208.92 54.81 207.75"/>
          <polygon class="cls-5" points="62.81 201.86 61.15 200.27 59.57 198.61 57.99 196.95 56.49 195.22 57.72 194.15 59.2 195.85 60.75 197.48 62.31 199.12 63.94 200.68 62.81 201.86"/>
          <polygon class="cls-5" points="52.8 198.41 57.72 194.15 58.72 195.3 53.87 199.64 52.8 198.41"/>
          <path class="cls-5" d="m55.88,203.19l-1.94-2.04c-.64-.68-1.24-1.41-1.86-2.11l1.23-1.07c.61.69,1.2,1.41,1.83,2.08l1.91,2.01-1.18,1.14Z"/>
          <polygon class="cls-5" points="54.74 202 57.56 199.36 58.66 200.51 55.88 203.19 54.74 202"/>
          <path class="cls-5" d="m42.5,201.24c4.06,5.07,8.55,9.8,13.4,14.12l-1.08,1.22c-4.93-4.38-9.48-9.17-13.6-14.32l1.28-1.02Z"/>
          <path class="cls-5" d="m60.02,187.25c3.26,4.07,6.86,7.87,10.76,11.33l-1.08,1.22c-3.97-3.53-7.63-7.39-10.95-11.53l1.28-1.02Z"/>
        </g>
        <g>
          <path class="cls-5" d="m31.53,178.62c2.77,5.71,6.03,11.17,9.72,16.32l-1.33.95c-3.75-5.22-7.06-10.77-9.87-16.56l1.47-.71Z"/>
          <polygon class="cls-5" points="38.91 194.45 54.04 183.95 54.9 185.15 39.93 195.89 38.91 194.45"/>
          <path class="cls-5" d="m46.65,171.33c2.35,4.83,5.11,9.46,8.24,13.83l-1.33.95c-3.19-4.44-6-9.15-8.39-14.07l1.47-.71Z"/>
          <polygon class="cls-5" points="33.34 177.75 46.65 171.33 47.33 172.64 34.12 179.27 33.34 177.75"/>
          <path class="cls-5" d="m40.52,190.34c-2.69-4.02-5.02-8.27-7.18-12.59l1.47-.71c2.13,4.26,4.42,8.45,7.07,12.4l-1.36.9Z"/>
          <polygon class="cls-5" points="39.6 188.91 49.22 182.76 50.05 184.05 40.52 190.34 39.6 188.91"/>
          <path class="cls-5" d="m48.68,184.95c-.81-1.3-1.69-2.55-2.44-3.88-.75-1.33-1.55-2.63-2.26-3.99l1.44-.77c.69,1.33,1.48,2.61,2.22,3.92.74,1.31,1.61,2.54,2.4,3.82l-1.36.9Z"/>
          <path class="cls-5" d="m39.69,179.38l5.74-3.07c.22.46.47.9.73,1.34l-5.69,3.16c-.28-.47-.54-.94-.78-1.43Z"/>
          <path class="cls-5" d="m41.62,184.72c-.92-1.63-1.9-3.24-2.78-4.9l1.44-.77c.86,1.63,1.82,3.21,2.73,4.82l-1.4.85Z"/>
          <polygon class="cls-5" points="40.8 183.3 44.13 181.35 44.92 182.72 41.62 184.72 40.8 183.3"/>
          <path class="cls-5" d="m29,179.85c2.84,5.85,6.18,11.46,9.97,16.73l-1.33.95c-3.84-5.36-7.24-11.04-10.12-16.98l1.47-.71Z"/>
          <path class="cls-5" d="m49.19,170.1c2.28,4.69,4.96,9.17,8,13.41l-1.33.95c-3.09-4.31-5.82-8.88-8.14-13.65l1.47-.71Z"/>
        </g>
        <g>
          <path class="cls-5" d="m23.41,155.32c1.41,6.18,3.32,12.25,5.78,18.1l-1.51.63c-2.5-5.93-4.44-12.1-5.87-18.37l1.59-.36Z"/>
          <polygon class="cls-5" points="27.04 172.41 44.14 165.55 44.67 166.92 27.69 174.05 27.04 172.41"/>
          <path class="cls-5" d="m39.78,151.59c1.19,5.23,2.81,10.37,4.89,15.32l-1.51.63c-2.12-5.04-3.76-10.27-4.98-15.59l1.59-.36Z"/>
          <polygon class="cls-5" points="25.37 154.87 39.78 151.59 40.11 153.03 25.76 156.53 25.37 154.87"/>
          <path class="cls-5" d="m29.52,168.76c-1.65-4.54-3.13-9.16-4.15-13.89l1.59-.36c1,4.66,2.46,9.21,4.08,13.68l-1.53.57Z"/>
          <path class="cls-5" d="m28.93,167.16l10.75-3.84c.16.48.33.96.52,1.43l-10.69,4.01c-.22-.53-.41-1.06-.59-1.6Z"/>
          <path class="cls-5" d="m38.68,165.33c-1.05-2.87-2.01-5.77-2.8-8.72l1.58-.43c.78,2.9,1.72,5.76,2.76,8.58l-1.53.57Z"/>
          <polygon class="cls-5" points="31.17 157.88 37.45 156.18 37.87 157.65 31.61 159.45 31.17 157.88"/>
          <path class="cls-5" d="m31.87,163.52c-.64-1.77-1.1-3.59-1.62-5.39l1.58-.43c.52,1.77.97,3.57,1.6,5.3l-1.55.51Z"/>
          <polygon class="cls-5" points="31.34 161.96 35.03 160.81 35.54 162.31 31.87 163.52 31.34 161.96"/>
          <path class="cls-5" d="m20.66,155.94c1.44,6.34,3.41,12.57,5.93,18.57l-1.51.63c-2.56-6.08-4.55-12.4-6.02-18.84l1.59-.36Z"/>
          <path class="cls-5" d="m42.53,150.97c1.16,5.07,2.72,10.06,4.74,14.86l-1.51.63c-2.06-4.89-3.65-9.96-4.83-15.13l1.59-.36Z"/>
        </g>
        <g>
          <path class="cls-5" d="m20.64,130.81c.03,6.33.57,12.67,1.65,18.91l-1.61.28c-1.09-6.34-1.64-12.77-1.67-19.19h1.63Z"/>
          <polygon class="cls-5" points="20.37 148.26 38.57 145.41 38.83 146.86 20.68 150 20.37 148.26"/>
          <path class="cls-5" d="m37.43,130.81c.03,5.38.49,10.76,1.4,16.05l-1.61.28c-.93-5.39-1.4-10.85-1.43-16.33h1.63Z"/>
          <polygon class="cls-5" points="22.65 130.81 37.43 130.81 37.47 132.28 22.69 132.51 22.65 130.81"/>
          <path class="cls-5" d="m23.64,145.26c-.71-4.79-.9-9.63-.99-14.45h1.63c.09,4.76.27,9.52.97,14.24l-1.62.22Z"/>
          <polygon class="cls-5" points="23.43 143.57 34.76 142.24 34.96 143.75 23.64 145.26 23.43 143.57"/>
          <path class="cls-5" d="m33.34,143.97c-.43-3.03-.66-6.08-.8-9.13l1.63-.07c.14,3,.36,6.01.79,8.98l-1.62.22Z"/>
          <path class="cls-5" d="m27.66,135.03l6.51-.26c.02.51.01,1.02.06,1.53l-6.5.36c-.05-.54-.05-1.08-.07-1.63Z"/>
          <path class="cls-5" d="m27.08,140.68c-.12-1.87-.34-3.74-.37-5.62l1.63-.07c.03,1.85.25,3.69.37,5.53l-1.63.15Z"/>
          <polygon class="cls-5" points="26.95 139.04 30.8 138.74 30.92 140.32 27.08 140.68 26.95 139.04"/>
          <path class="cls-5" d="m17.82,130.81c.03,6.49.59,12.99,1.69,19.39l-1.61.28c-1.12-6.5-1.69-13.09-1.71-19.67h1.63Z"/>
          <path class="cls-5" d="m40.25,130.81c.03,5.23.48,10.44,1.36,15.57l-1.61.28c-.9-5.23-1.36-10.53-1.39-15.85h1.63Z"/>
        </g>
        <g>
          <path class="cls-5" d="m23.41,106.3c-1.4,6.18-2.28,12.48-2.62,18.81l-1.63-.08c.35-6.42,1.24-12.81,2.66-19.09l1.59.36Z"/>
          <polygon class="cls-5" points="19.29 123.27 37.67 124.5 37.55 125.97 19.15 125.03 19.29 123.27"/>
          <path class="cls-5" d="m39.78,110.02c-1.19,5.24-1.93,10.57-2.23,15.94l-1.63-.08c.3-5.46,1.06-10.89,2.27-16.22l1.59.36Z"/>
          <polygon class="cls-5" points="25.37 106.75 39.78 110.02 39.45 111.46 24.99 108.41 25.37 106.75"/>
          <path class="cls-5" d="m23.11,121.06c.07-1.21.24-2.4.39-3.6.16-1.2.28-2.4.48-3.59.44-2.38.79-4.77,1.39-7.12l1.59.36c-.59,2.31-.93,4.67-1.37,7.01-.2,1.17-.31,2.36-.47,3.54-.15,1.18-.32,2.36-.39,3.55l-1.63-.15Z"/>
          <path class="cls-5" d="m23.26,119.36l11.35,1.19c-.08.5-.09,1.01-.13,1.52l-11.37-1.02c.05-.57.07-1.14.15-1.7Z"/>
          <path class="cls-5" d="m32.85,121.93c.08-1.53.35-3.04.52-4.56.16-1.52.47-3.02.73-4.53l1.61.3c-.26,1.48-.56,2.95-.72,4.45-.16,1.49-.44,2.98-.51,4.48l-1.63-.15Z"/>
          <polygon class="cls-5" points="29.3 111.97 35.71 113.15 35.44 114.65 29.02 113.57 29.3 111.97"/>
          <path class="cls-5" d="m27.49,117.36c.13-.93.22-1.86.37-2.79l.49-2.77,1.61.3-.49,2.73c-.15.91-.24,1.83-.37,2.75l-1.62-.21Z"/>
          <polygon class="cls-5" points="27.7 115.73 31.52 116.28 31.32 117.85 27.49 117.36 27.7 115.73"/>
          <path class="cls-5" d="m20.66,105.68c-1.44,6.34-2.33,12.8-2.69,19.29l-1.63-.08c.36-6.58,1.27-13.14,2.73-19.57l1.59.36Z"/>
          <path class="cls-5" d="m42.53,110.65c-1.15,5.08-1.87,10.25-2.16,15.46l-1.63-.08c.3-5.3,1.03-10.57,2.2-15.74l1.59.36Z"/>
        </g>
        <g>
          <path class="cls-5" d="m31.53,83c-2.74,5.72-4.99,11.67-6.71,17.78l-1.57-.44c1.75-6.19,4.03-12.24,6.81-18.04l1.47.71Z"/>
          <polygon class="cls-5" points="23.73 98.63 41.38 103.93 40.98 105.34 23.25 100.33 23.73 98.63"/>
          <path class="cls-5" d="m46.65,90.29c-2.32,4.85-4.22,9.89-5.68,15.05l-1.57-.44c1.49-5.26,3.42-10.39,5.78-15.32l1.47.71Z"/>
          <polygon class="cls-5" points="33.34 83.87 46.65 90.29 46.05 91.63 32.64 85.42 33.34 83.87"/>
          <path class="cls-5" d="m27.96,97.33l1.16-3.44c.42-1.13.88-2.25,1.32-3.38l.67-1.69.74-1.66,1.5-3.3,1.47.71-1.47,3.25-.73,1.63-.66,1.66c-.43,1.11-.89,2.21-1.3,3.33l-1.15,3.38-1.55-.51Z"/>
          <polygon class="cls-5" points="28.51 95.72 39.3 99.42 38.81 100.86 27.96 97.33 28.51 95.72"/>
          <path class="cls-5" d="m37.26,100.36c.94-2.91,2.04-5.76,3.23-8.57l1.5.65c-1.18,2.76-2.26,5.57-3.18,8.43l-1.55-.51Z"/>
          <path class="cls-5" d="m36.02,89.85l5.98,2.59c-.22.46-.42.93-.6,1.4l-6.02-2.49c.19-.51.41-1.01.64-1.5Z"/>
          <path class="cls-5" d="m33.04,94.69c.7-1.74,1.34-3.51,2.1-5.22l1.5.65c-.75,1.69-1.38,3.43-2.07,5.14l-1.53-.57Z"/>
          <polygon class="cls-5" points="33.64 93.16 37.24 94.56 36.66 96.03 33.04 94.69 33.64 93.16"/>
          <path class="cls-5" d="m29,81.77c-2.81,5.87-5.12,11.97-6.89,18.23l-1.57-.44c1.79-6.35,4.13-12.55,6.99-18.5l1.47.71Z"/>
          <path class="cls-5" d="m49.19,91.51c-2.25,4.7-4.09,9.59-5.51,14.59l-1.57-.44c1.44-5.1,3.32-10.08,5.61-14.86l1.47.71Z"/>
        </g>
        <g>
          <path class="cls-5" d="m44.7,62.13c-3.95,4.95-7.51,10.22-10.54,15.79l-1.43-.79c3.08-5.65,6.69-11,10.7-16.03l1.28,1.02Z"/>
          <polygon class="cls-5" points="33.6 75.61 49.61 84.72 48.87 86 32.72 77.14 33.6 75.61"/>
          <path class="cls-5" d="m57.82,72.61c-3.35,4.2-6.38,8.67-8.94,13.39l-1.43-.79c2.61-4.8,5.69-9.35,9.1-13.62l1.28,1.02Z"/>
          <polygon class="cls-5" points="46.27 63.39 57.82 72.61 56.91 73.77 45.21 64.73 46.27 63.39"/>
          <path class="cls-5" d="m37.99,75.28c2.54-4.11,5.21-8.15,8.28-11.9l1.28,1.02c-3.02,3.68-5.65,7.67-8.15,11.72l-1.4-.84Z"/>
          <path class="cls-5" d="m38.88,73.83l9.7,6.02c-.28.43-.56.85-.8,1.3l-9.79-5.87c.27-.5.59-.97.89-1.45Z"/>
          <path class="cls-5" d="m46.38,80.31c.78-1.32,1.64-2.58,2.45-3.88.83-1.29,1.76-2.5,2.63-3.76l1.32.97c-.86,1.24-1.77,2.43-2.58,3.69-.8,1.27-1.65,2.52-2.41,3.81l-1.4-.84Z"/>
          <polygon class="cls-5" points="47.53 69.79 52.78 73.65 51.89 74.89 46.58 71.12 47.53 69.79"/>
          <path class="cls-5" d="m43.56,73.86c.98-1.6,2.13-3.09,3.2-4.63l1.32.97c-1.05,1.52-2.19,2.98-3.15,4.56l-1.37-.89Z"/>
          <polygon class="cls-5" points="44.45 72.48 47.64 74.64 46.79 75.97 43.56 73.86 44.45 72.48"/>
          <path class="cls-5" d="m42.5,60.37c-4.05,5.08-7.7,10.49-10.81,16.2l-1.43-.79c3.16-5.79,6.86-11.28,10.97-16.43l1.28,1.02Z"/>
          <path class="cls-5" d="m60.02,74.37c-3.25,4.07-6.18,8.41-8.67,12.99l-1.43-.79c2.53-4.66,5.52-9.07,8.83-13.22l1.28,1.02Z"/>
        </g>
        <g>
          <path class="cls-5" d="m62.13,44.7c-4.95,3.96-9.56,8.33-13.77,13.07l-1.22-1.08c4.27-4.81,8.95-9.25,13.97-13.26l1.02,1.28Z"/>
          <path class="cls-5" d="m48.31,55.36l13.59,12.44c-.34.35-.65.74-.98,1.1l-13.79-12.22c.39-.44.76-.9,1.17-1.32Z"/>
          <path class="cls-5" d="m72.61,57.82c-4.2,3.36-8.11,7.07-11.68,11.09l-1.22-1.08c3.63-4.09,7.61-7.87,11.88-11.28l1.02,1.28Z"/>
          <polygon class="cls-5" points="63.39 46.27 72.61 57.82 71.45 58.72 62.05 47.32 63.39 46.27"/>
          <path class="cls-5" d="m52.69,56.04c1.63-1.78,3.43-3.41,5.17-5.08.89-.81,1.82-1.59,2.73-2.39l1.37-1.19,1.42-1.12,1.02,1.28-1.4,1.11-1.35,1.17c-.9.78-1.81,1.55-2.69,2.35-1.71,1.65-3.48,3.25-5.09,5.01l-1.18-1.13Z"/>
          <polygon class="cls-5" points="53.87 54.81 61.99 62.83 60.94 63.94 52.69 56.04 53.87 54.81"/>
          <polygon class="cls-5" points="59.76 62.81 61.35 61.15 63.01 59.57 64.67 57.99 66.4 56.49 67.47 57.72 65.76 59.2 64.13 60.75 62.5 62.31 60.94 63.94 59.76 62.81"/>
          <polygon class="cls-5" points="63.2 52.8 67.47 57.72 66.32 58.72 61.97 53.87 63.2 52.8"/>
          <path class="cls-5" d="m58.43,55.88l2.04-1.94c.68-.64,1.41-1.24,2.11-1.86l1.07,1.23c-.69.61-1.41,1.2-2.08,1.83l-2.01,1.91-1.14-1.18Z"/>
          <polygon class="cls-5" points="59.62 54.74 62.25 57.56 61.11 58.66 58.43 55.88 59.62 54.74"/>
          <path class="cls-5" d="m60.37,42.5c-5.07,4.06-9.8,8.55-14.12,13.4l-1.22-1.08c4.38-4.93,9.17-9.48,14.32-13.6l1.02,1.28Z"/>
          <path class="cls-5" d="m74.37,60.02c-4.07,3.26-7.87,6.86-11.33,10.76l-1.22-1.08c3.53-3.97,7.39-7.63,11.53-10.95l1.02,1.28Z"/>
        </g>
        <g>
          <path class="cls-5" d="m83,31.53c-5.71,2.77-11.17,6.03-16.32,9.72l-.95-1.33c5.22-3.75,10.77-7.06,16.56-9.87l.71,1.47Z"/>
          <polygon class="cls-5" points="67.16 38.91 77.67 54.04 76.47 54.9 65.73 39.93 67.16 38.91"/>
          <path class="cls-5" d="m90.29,46.65c-4.83,2.35-9.46,5.11-13.83,8.24l-.95-1.33c4.44-3.19,9.15-6,14.07-8.39l.71,1.47Z"/>
          <polygon class="cls-5" points="83.87 33.34 90.29 46.65 88.98 47.33 82.35 34.12 83.87 33.34"/>
          <path class="cls-5" d="m71.28,40.52c4.02-2.69,8.27-5.02,12.59-7.18l.71,1.47c-4.26,2.13-8.45,4.42-12.4,7.07l-.9-1.36Z"/>
          <polygon class="cls-5" points="72.71 39.6 78.85 49.22 77.57 50.05 71.28 40.52 72.71 39.6"/>
          <path class="cls-5" d="m76.67,48.68c1.3-.81,2.55-1.69,3.88-2.44,1.33-.75,2.63-1.55,3.99-2.26l.77,1.44c-1.33.69-2.61,1.48-3.92,2.22-1.31.74-2.54,1.61-3.82,2.4l-.9-1.36Z"/>
          <path class="cls-5" d="m82.24,39.69l3.07,5.74c-.46.22-.9.47-1.34.73l-3.16-5.69c.47-.28.94-.54,1.43-.78Z"/>
          <path class="cls-5" d="m76.89,41.62c1.63-.92,3.24-1.9,4.9-2.78l.77,1.44c-1.63.86-3.21,1.82-4.82,2.73l-.85-1.4Z"/>
          <polygon class="cls-5" points="78.32 40.8 80.27 44.13 78.89 44.92 76.89 41.62 78.32 40.8"/>
          <path class="cls-5" d="m81.77,29c-5.85,2.84-11.46,6.18-16.73,9.97l-.95-1.33c5.36-3.84,11.04-7.24,16.98-10.12l.71,1.47Z"/>
          <path class="cls-5" d="m91.51,49.19c-4.69,2.28-9.17,4.96-13.41,8l-.95-1.33c4.31-3.09,8.88-5.82,13.65-8.14l.71,1.47Z"/>
        </g>
        <g>
          <path class="cls-5" d="m106.3,23.41c-6.18,1.41-12.25,3.32-18.1,5.78l-.63-1.51c5.93-2.5,12.1-4.44,18.37-5.87l.36,1.59Z"/>
          <polygon class="cls-5" points="89.21 27.04 96.07 44.14 94.7 44.67 87.57 27.69 89.21 27.04"/>
          <path class="cls-5" d="m110.02,39.78c-5.23,1.19-10.37,2.81-15.32,4.89l-.63-1.51c5.04-2.12,10.27-3.76,15.59-4.98l.36,1.59Z"/>
          <polygon class="cls-5" points="106.75 25.37 110.02 39.78 108.59 40.11 105.08 25.76 106.75 25.37"/>
          <path class="cls-5" d="m92.85,29.52c4.54-1.65,9.16-3.13,13.89-4.15l.36,1.59c-4.66,1-9.21,2.46-13.68,4.08l-.57-1.53Z"/>
          <path class="cls-5" d="m94.46,28.93l3.84,10.75c-.48.16-.96.33-1.43.52l-4.01-10.69c.53-.22,1.06-.41,1.6-.59Z"/>
          <path class="cls-5" d="m96.29,38.68c2.87-1.05,5.77-2.01,8.72-2.8l.43,1.58c-2.9.78-5.76,1.72-8.58,2.76l-.57-1.53Z"/>
          <polygon class="cls-5" points="103.74 31.17 105.44 37.45 103.97 37.87 102.17 31.61 103.74 31.17"/>
          <path class="cls-5" d="m98.1,31.87c1.77-.64,3.59-1.1,5.39-1.62l.43,1.58c-1.77.52-3.57.97-5.3,1.6l-.51-1.55Z"/>
          <polygon class="cls-5" points="99.65 31.34 100.81 35.03 99.31 35.54 98.1 31.87 99.65 31.34"/>
          <path class="cls-5" d="m105.68,20.66c-6.34,1.44-12.57,3.41-18.57,5.93l-.63-1.51c6.08-2.56,12.4-4.55,18.84-6.02l.36,1.59Z"/>
          <path class="cls-5" d="m110.65,42.53c-5.07,1.16-10.06,2.72-14.86,4.74l-.63-1.51c4.89-2.06,9.96-3.65,15.13-4.83l.36,1.59Z"/>
        </g>
        <g>
          <path class="cls-5" d="m130.81,20.64c-6.33.03-12.67.57-18.91,1.65l-.28-1.61c6.34-1.09,12.77-1.64,19.19-1.67v1.63Z"/>
          <polygon class="cls-5" points="113.35 20.37 116.21 38.57 114.76 38.83 111.62 20.68 113.35 20.37"/>
          <path class="cls-5" d="m130.81,37.43c-5.38.03-10.76.49-16.05,1.4l-.28-1.61c5.39-.93,10.85-1.4,16.33-1.43v1.63Z"/>
          <polygon class="cls-5" points="130.81 22.65 130.81 37.43 129.33 37.47 129.1 22.69 130.81 22.65"/>
          <path class="cls-5" d="m116.35,23.64c4.79-.71,9.63-.9,14.45-.99v1.63c-4.76.09-9.52.27-14.24.97l-.22-1.62Z"/>
          <polygon class="cls-5" points="118.05 23.43 119.38 34.76 117.87 34.96 116.35 23.64 118.05 23.43"/>
          <path class="cls-5" d="m117.65,33.34c3.03-.43,6.08-.66,9.13-.8l.07,1.63c-3,.14-6.01.36-8.98.79l-.22-1.62Z"/>
          <path class="cls-5" d="m126.59,27.66l.26,6.51c-.51.02-1.02.01-1.53.06l-.36-6.5c.54-.05,1.08-.05,1.63-.07Z"/>
          <path class="cls-5" d="m120.93,27.08c1.87-.12,3.74-.34,5.62-.37l.07,1.63c-1.85.03-3.69.25-5.53.37l-.15-1.63Z"/>
          <polygon class="cls-5" points="122.57 26.95 122.87 30.8 121.3 30.92 120.93 27.08 122.57 26.95"/>
          <path class="cls-5" d="m130.81,17.82c-6.49.03-12.99.59-19.39,1.69l-.28-1.61c6.5-1.12,13.09-1.69,19.67-1.71v1.63Z"/>
          <path class="cls-5" d="m130.81,40.25c-5.23.03-10.44.48-15.57,1.36l-.28-1.61c5.23-.9,10.53-1.36,15.85-1.39v1.63Z"/>
        </g>
        <g>
          <path class="cls-5" d="m155.32,23.41c-6.18-1.4-12.48-2.28-18.81-2.62l.08-1.63c6.42.35,12.81,1.24,19.09,2.66l-.36,1.59Z"/>
          <polygon class="cls-5" points="138.35 19.29 137.12 37.67 135.65 37.55 136.59 19.15 138.35 19.29"/>
          <path class="cls-5" d="m151.59,39.78c-5.24-1.19-10.57-1.93-15.94-2.23l.08-1.63c5.46.3,10.89,1.06,16.22,2.27l-.36,1.59Z"/>
          <polygon class="cls-5" points="154.87 25.37 151.59 39.78 150.16 39.45 153.21 24.99 154.87 25.37"/>
          <path class="cls-5" d="m140.55,23.11c1.21.07,2.4.24,3.6.39,1.2.16,2.4.28,3.59.48,2.38.44,4.77.79,7.12,1.39l-.36,1.59c-2.31-.59-4.67-.93-7.01-1.37-1.17-.2-2.36-.31-3.54-.47-1.18-.15-2.36-.32-3.55-.39l.15-1.63Z"/>
          <path class="cls-5" d="m142.25,23.26l-1.19,11.35c-.5-.08-1.01-.09-1.52-.13l1.02-11.37c.57.05,1.14.07,1.7.15Z"/>
          <path class="cls-5" d="m139.68,32.85c1.53.08,3.04.35,4.56.52,1.52.16,3.02.47,4.53.73l-.3,1.61c-1.48-.26-2.95-.56-4.45-.72-1.49-.16-2.98-.44-4.48-.51l.15-1.63Z"/>
          <polygon class="cls-5" points="149.65 29.3 148.47 35.71 146.97 35.44 148.04 29.02 149.65 29.3"/>
          <path class="cls-5" d="m144.26,27.49c.93.13,1.86.22,2.79.37l2.77.49-.3,1.61-2.73-.49c-.91-.15-1.83-.24-2.75-.37l.21-1.62Z"/>
          <polygon class="cls-5" points="145.89 27.7 145.34 31.52 143.77 31.32 144.26 27.49 145.89 27.7"/>
          <path class="cls-5" d="m155.94,20.66c-6.34-1.44-12.8-2.33-19.29-2.69l.08-1.63c6.58.36,13.14,1.27,19.57,2.73l-.36,1.59Z"/>
          <path class="cls-5" d="m150.97,42.53c-5.08-1.15-10.25-1.87-15.46-2.16l.08-1.63c5.3.3,10.57,1.03,15.74,2.2l-.36,1.59Z"/>
        </g>
        <g>
          <path class="cls-5" d="m178.62,31.53c-5.72-2.74-11.67-4.99-17.78-6.71l.44-1.57c6.19,1.75,12.24,4.03,18.04,6.81l-.71,1.47Z"/>
          <polygon class="cls-5" points="162.99 23.73 157.69 41.38 156.28 40.98 161.29 23.25 162.99 23.73"/>
          <path class="cls-5" d="m171.33,46.65c-4.85-2.32-9.89-4.22-15.05-5.68l.44-1.57c5.26,1.49,10.39,3.42,15.32,5.78l-.71,1.47Z"/>
          <polygon class="cls-5" points="177.75 33.34 171.33 46.65 169.98 46.05 176.19 32.64 177.75 33.34"/>
          <path class="cls-5" d="m164.28,27.96l3.44,1.16c1.13.42,2.25.88,3.38,1.32l1.69.67,1.66.74,3.3,1.5-.71,1.47-3.25-1.47-1.63-.73-1.66-.66c-1.11-.43-2.21-.89-3.33-1.3l-3.38-1.15.51-1.55Z"/>
          <polygon class="cls-5" points="165.9 28.51 162.2 39.3 160.75 38.81 164.28 27.96 165.9 28.51"/>
          <path class="cls-5" d="m161.26,37.26c2.91.94,5.76,2.04,8.57,3.23l-.65,1.5c-2.76-1.18-5.57-2.26-8.43-3.18l.51-1.55Z"/>
          <path class="cls-5" d="m171.77,36.02l-2.59,5.98c-.46-.22-.93-.42-1.4-.6l2.49-6.02c.51.19,1.01.41,1.5.64Z"/>
          <path class="cls-5" d="m166.93,33.04c1.74.7,3.51,1.34,5.22,2.1l-.65,1.5c-1.69-.75-3.43-1.38-5.14-2.07l.57-1.53Z"/>
          <polygon class="cls-5" points="168.46 33.64 167.06 37.24 165.59 36.66 166.93 33.04 168.46 33.64"/>
          <path class="cls-5" d="m179.85,29c-5.87-2.81-11.97-5.12-18.23-6.89l.44-1.57c6.35,1.79,12.55,4.13,18.5,6.99l-.71,1.47Z"/>
          <path class="cls-5" d="m170.1,49.19c-4.7-2.25-9.59-4.09-14.59-5.51l.44-1.57c5.1,1.44,10.08,3.32,14.86,5.61l-.71,1.47Z"/>
        </g>
        <g>
          <path class="cls-5" d="m199.49,44.7c-4.95-3.95-10.22-7.51-15.79-10.54l.79-1.43c5.65,3.08,11,6.69,16.03,10.7l-1.02,1.28Z"/>
          <polygon class="cls-5" points="186.01 33.6 176.9 49.61 175.62 48.87 184.48 32.72 186.01 33.6"/>
          <path class="cls-5" d="m189.01,57.82c-4.2-3.35-8.67-6.38-13.39-8.94l.79-1.43c4.8,2.61,9.35,5.69,13.62,9.1l-1.02,1.28Z"/>
          <polygon class="cls-5" points="198.23 46.27 189.01 57.82 187.85 56.91 196.89 45.21 198.23 46.27"/>
          <path class="cls-5" d="m186.33,37.99c4.11,2.54,8.15,5.21,11.9,8.28l-1.02,1.28c-3.68-3.02-7.67-5.65-11.72-8.15l.84-1.4Z"/>
          <path class="cls-5" d="m187.79,38.88l-6.02,9.7c-.43-.28-.85-.56-1.3-.8l5.87-9.79c.5.27.97.59,1.45.89Z"/>
          <path class="cls-5" d="m181.31,46.38c1.32.78,2.58,1.64,3.88,2.45,1.29.83,2.5,1.76,3.76,2.63l-.97,1.32c-1.24-.86-2.43-1.77-3.69-2.58-1.27-.8-2.52-1.65-3.81-2.41l.84-1.4Z"/>
          <polygon class="cls-5" points="191.82 47.53 187.97 52.78 186.73 51.89 190.5 46.58 191.82 47.53"/>
          <path class="cls-5" d="m187.76,43.56c1.6.98,3.09,2.13,4.63,3.2l-.97,1.32c-1.52-1.05-2.98-2.19-4.56-3.15l.89-1.37Z"/>
          <polygon class="cls-5" points="189.14 44.45 186.98 47.64 185.65 46.79 187.76 43.56 189.14 44.45"/>
          <path class="cls-5" d="m201.24,42.5c-5.08-4.05-10.49-7.7-16.2-10.81l.79-1.43c5.79,3.16,11.28,6.86,16.43,10.97l-1.02,1.28Z"/>
          <path class="cls-5" d="m187.25,60.02c-4.07-3.25-8.41-6.18-12.99-8.67l.79-1.43c4.66,2.53,9.07,5.52,13.22,8.83l-1.02,1.28Z"/>
        </g>
        <g>
          <path class="cls-5" d="m216.92,62.13c-3.96-4.95-8.33-9.56-13.07-13.77l1.08-1.22c4.81,4.27,9.25,8.95,13.26,13.97l-1.28,1.02Z"/>
          <path class="cls-5" d="m206.25,48.31l-12.44,13.59c-.35-.34-.74-.65-1.1-.97l12.22-13.79c.44.39.9.76,1.32,1.17Z"/>
          <path class="cls-5" d="m203.8,72.61c-3.36-4.2-7.07-8.11-11.09-11.68l1.08-1.22c4.09,3.63,7.87,7.61,11.28,11.88l-1.28,1.02Z"/>
          <polygon class="cls-5" points="215.35 63.39 203.8 72.61 202.89 71.45 214.29 62.05 215.35 63.39"/>
          <path class="cls-5" d="m205.57,52.69c1.78,1.63,3.41,3.43,5.08,5.17.81.89,1.59,1.82,2.39,2.73l1.19,1.37,1.12,1.42-1.28,1.02-1.11-1.4-1.17-1.35c-.78-.9-1.55-1.81-2.35-2.69-1.65-1.71-3.25-3.48-5.01-5.09l1.13-1.18Z"/>
          <polygon class="cls-5" points="206.81 53.87 198.78 61.99 197.68 60.94 205.57 52.69 206.81 53.87"/>
          <polygon class="cls-5" points="198.81 59.76 200.46 61.35 202.05 63.01 203.63 64.67 205.13 66.4 203.9 67.47 202.42 65.76 200.86 64.13 199.31 62.5 197.68 60.94 198.81 59.76"/>
          <polygon class="cls-5" points="208.82 63.2 203.9 67.47 202.9 66.32 207.75 61.97 208.82 63.2"/>
          <path class="cls-5" d="m205.74,58.43l1.94,2.04c.64.68,1.24,1.41,1.86,2.11l-1.23,1.07c-.61-.69-1.2-1.41-1.83-2.08l-1.91-2.01,1.18-1.14Z"/>
          <polygon class="cls-5" points="206.87 59.62 204.05 62.25 202.96 61.11 205.74 58.43 206.87 59.62"/>
          <path class="cls-5" d="m219.12,60.37c-4.06-5.07-8.55-9.8-13.4-14.12l1.08-1.22c4.93,4.38,9.48,9.17,13.6,14.32l-1.28,1.02Z"/>
          <path class="cls-5" d="m201.6,74.37c-3.26-4.07-6.86-7.87-10.76-11.33l1.08-1.22c3.97,3.53,7.63,7.39,10.95,11.53l-1.28,1.02Z"/>
        </g>
        <g>
          <path class="cls-5" d="m230.08,83c-2.77-5.71-6.03-11.17-9.72-16.32l1.33-.95c3.75,5.22,7.06,10.77,9.87,16.56l-1.47.71Z"/>
          <polygon class="cls-5" points="222.71 67.16 207.57 77.67 206.72 76.47 221.69 65.73 222.71 67.16"/>
          <path class="cls-5" d="m214.96,90.29c-2.35-4.83-5.11-9.46-8.24-13.83l1.33-.95c3.19,4.44,6,9.15,8.39,14.07l-1.47.71Z"/>
          <polygon class="cls-5" points="228.27 83.87 214.96 90.29 214.29 88.98 227.5 82.35 228.27 83.87"/>
          <path class="cls-5" d="m221.1,71.28c2.69,4.02,5.02,8.27,7.18,12.59l-1.47.71c-2.13-4.26-4.42-8.45-7.07-12.4l1.36-.9Z"/>
          <polygon class="cls-5" points="222.02 72.71 212.39 78.85 211.57 77.57 221.1 71.28 222.02 72.71"/>
          <path class="cls-5" d="m212.93,76.67c.81,1.3,1.69,2.55,2.44,3.88.75,1.33,1.55,2.63,2.26,3.99l-1.44.77c-.69-1.33-1.48-2.61-2.22-3.92-.74-1.31-1.61-2.54-2.4-3.82l1.36-.9Z"/>
          <path class="cls-5" d="m221.93,82.24l-5.74,3.07c-.22-.46-.47-.9-.73-1.34l5.69-3.16c.28.47.54.94.78,1.43Z"/>
          <path class="cls-5" d="m220,76.89c.92,1.63,1.9,3.24,2.78,4.9l-1.44.77c-.86-1.63-1.82-3.21-2.73-4.82l1.4-.85Z"/>
          <polygon class="cls-5" points="220.82 78.32 217.49 80.27 216.7 78.89 220 76.89 220.82 78.32"/>
          <path class="cls-5" d="m232.62,81.77c-2.84-5.85-6.18-11.46-9.97-16.73l1.33-.95c3.84,5.36,7.24,11.04,10.12,16.98l-1.47.71Z"/>
          <path class="cls-5" d="m212.43,91.51c-2.28-4.69-4.96-9.17-8-13.41l1.33-.95c3.09,4.31,5.82,8.88,8.14,13.65l-1.47.71Z"/>
        </g>
        <g>
          <path class="cls-5" d="m238.21,106.3c-1.41-6.18-3.32-12.25-5.78-18.1l1.51-.63c2.5,5.93,4.44,12.1,5.87,18.37l-1.59.36Z"/>
          <polygon class="cls-5" points="234.58 89.21 217.48 96.07 216.94 94.7 233.93 87.57 234.58 89.21"/>
          <path class="cls-5" d="m221.83,110.02c-1.19-5.23-2.81-10.37-4.89-15.32l1.51-.63c2.12,5.04,3.76,10.27,4.98,15.59l-1.59.36Z"/>
          <polygon class="cls-5" points="236.25 106.75 221.83 110.02 221.5 108.59 235.86 105.08 236.25 106.75"/>
          <path class="cls-5" d="m232.1,92.85c1.65,4.54,3.13,9.16,4.15,13.89l-1.59.36c-1-4.66-2.46-9.21-4.08-13.68l1.53-.57Z"/>
          <path class="cls-5" d="m232.68,94.46l-10.75,3.84c-.16-.48-.33-.96-.52-1.43l10.69-4.01c.22.53.41,1.06.59,1.6Z"/>
          <path class="cls-5" d="m222.94,96.29c1.05,2.87,2.01,5.77,2.8,8.72l-1.58.43c-.78-2.9-1.72-5.76-2.76-8.58l1.53-.57Z"/>
          <polygon class="cls-5" points="230.45 103.74 224.17 105.44 223.75 103.97 230.01 102.17 230.45 103.74"/>
          <path class="cls-5" d="m229.75,98.1c.64,1.77,1.1,3.59,1.62,5.39l-1.58.43c-.52-1.77-.97-3.57-1.6-5.3l1.55-.51Z"/>
          <polygon class="cls-5" points="230.28 99.65 226.59 100.81 226.08 99.31 229.75 98.1 230.28 99.65"/>
          <path class="cls-5" d="m240.95,105.68c-1.44-6.34-3.41-12.57-5.93-18.57l1.51-.63c2.56,6.08,4.55,12.4,6.02,18.84l-1.59.36Z"/>
          <path class="cls-5" d="m219.09,110.65c-1.16-5.07-2.72-10.06-4.74-14.86l1.51-.63c2.06,4.89,3.65,9.96,4.83,15.13l-1.59.36Z"/>
        </g>
        <g>
          <path class="cls-5" d="m240.98,130.81c-.03-6.33-.57-12.67-1.65-18.91l1.61-.28c1.09,6.34,1.64,12.77,1.67,19.19h-1.63Z"/>
          <polygon class="cls-5" points="241.24 113.35 223.04 116.21 222.78 114.76 240.94 111.62 241.24 113.35"/>
          <path class="cls-5" d="m224.19,130.81c-.03-5.38-.49-10.76-1.4-16.05l1.61-.28c.93,5.39,1.4,10.85,1.43,16.33h-1.63Z"/>
          <polygon class="cls-5" points="238.96 130.81 224.19 130.81 224.15 129.33 238.92 129.1 238.96 130.81"/>
          <path class="cls-5" d="m237.98,116.35c.71,4.79.9,9.63.99,14.45h-1.63c-.09-4.76-.27-9.52-.97-14.24l1.62-.22Z"/>
          <polygon class="cls-5" points="238.19 118.05 226.85 119.38 226.66 117.87 237.98 116.35 238.19 118.05"/>
          <path class="cls-5" d="m228.28,117.65c.43,3.03.66,6.08.8,9.13l-1.63.07c-.14-3-.36-6.01-.79-8.98l1.62-.22Z"/>
          <path class="cls-5" d="m233.96,126.59l-6.51.26c-.02-.51-.01-1.02-.06-1.53l6.5-.36c.05.54.05,1.08.07,1.63Z"/>
          <path class="cls-5" d="m234.54,120.93c.12,1.87.34,3.74.37,5.62l-1.63.07c-.03-1.85-.25-3.69-.37-5.53l1.63-.15Z"/>
          <polygon class="cls-5" points="234.66 122.57 230.81 122.87 230.69 121.3 234.54 120.93 234.66 122.57"/>
          <path class="cls-5" d="m243.79,130.81c-.03-6.49-.59-12.99-1.69-19.39l1.61-.28c1.12,6.5,1.69,13.09,1.71,19.67h-1.63Z"/>
          <path class="cls-5" d="m221.37,130.81c-.03-5.23-.48-10.44-1.36-15.57l1.61-.28c.9,5.23,1.36,10.53,1.39,15.85h-1.63Z"/>
        </g>
      </g>
      <g>
        <path class="cls-4" d="m154.9,108.85c-9.1,0-17.46,3.2-24.04,8.53-6.58-5.33-14.94-8.53-24.04-8.53-11.28,0-21.42,4.9-28.45,12.71v12.66c0,28.48,23.52,51.56,52.54,51.56h0c29.02,0,52.54-23.09,52.54-51.56v-12.54c-7.03-7.87-17.22-12.83-28.55-12.83Z"/>
        <path class="cls-7" d="m78.56,75.93c-.08-.03-.16-.07-.24-.1-.09,1.38-.15,2.78-.15,4.18v41.62s.05-.05.08-.08v-40.03c0-1.89.11-3.76.31-5.6Z"/>
        <path class="cls-7" d="m183.25,75.83c-.08.03-.16.07-.24.1.2,1.84.31,3.71.31,5.6v40.15s.05.05.08.08v-41.75c0-1.41-.06-2.8-.15-4.18Z"/>
        <path class="cls-7" d="m183.01,75.93c-13.82,6.05-32.13,9.74-52.23,9.74s-38.41-3.69-52.23-9.74c-.2,1.84-.31,3.71-.31,5.6v40.03c7.03-7.8,17.17-12.71,28.45-12.71,9.1,0,17.46,3.2,24.04,8.53,6.58-5.33,14.94-8.53,24.04-8.53,11.34,0,21.52,4.96,28.55,12.83v-40.15c0-1.89-.11-3.76-.31-5.6Zm-52.23,34.83c-4,0-7.24-3.18-7.24-7.11s3.24-7.11,7.24-7.11,7.24,3.18,7.24,7.11-3.24,7.11-7.24,7.11Z"/>
        <ellipse class="cls-6" cx="131.13" cy="103.65" rx="7.24" ry="7.11"/>
        <g>
          <path class="cls-8" d="m148.38,154.32c-.39-.2-.68-.53-.83-.86-.18-.35-.22-.7-.13-1.04.2-.65.94-1.16,1.84-1.09.86.06,1.52.97,1.22,1.98-.13.5-.49.87-.87,1.05-.4.18-.84.16-1.24-.03Z"/>
          <path class="cls-8" d="m145.81,157.45c-.52-.71-.48-1.62-.02-2.14.47-.5,1.38-.62,2.13-.17.76.45.93,1.55.22,2.32-.7.78-1.81.71-2.33,0Z"/>
          <path class="cls-8" d="m142.14,159.17c-.16-.87.26-1.68.9-1.94.64-.27,1.51.02,2,.75.49.73.17,1.79-.79,2.19-.97.39-1.94-.15-2.1-1.01Z"/>
          <path class="cls-8" d="m138.09,159.17c.21-.85.94-1.41,1.64-1.39.7.04,1.36.68,1.49,1.54.05.44-.08.86-.38,1.16-.3.3-.76.52-1.27.47-1.04-.05-1.7-.94-1.48-1.79Z"/>
          <path class="cls-8" d="m134.42,157.45c.56-.68,1.46-.88,2.06-.54.62.32.95,1.17.7,2.02-.25.84-1.26,1.27-2.2.79-.92-.51-1.12-1.59-.57-2.26Z"/>
          <path class="cls-8" d="m131.85,154.32c.79-.36,1.68-.15,2.1.4.21.29.28.65.25,1.02-.05.38-.2.79-.5,1.1-.31.32-.71.49-1.14.44-.43-.03-.88-.26-1.18-.68-.63-.84-.34-1.92.46-2.28Z"/>
          <path class="cls-8" d="m130.92,150.37c.9.03,1.57.61,1.71,1.28.04.35-.01.69-.24,1.03-.19.32-.5.61-.92.77-.41.15-.85.12-1.23-.1-.35-.22-.68-.63-.75-1.14-.09-.51.03-.99.32-1.33.27-.34.66-.52,1.1-.52Z"/>
          <path class="cls-8" d="m131.85,146.43c.39.2.68.53.83.86.18.35.22.7.13,1.04-.2.65-.94,1.16-1.84,1.09-.86-.06-1.52-.97-1.22-1.98.13-.5.49-.87.87-1.05.4-.18.84-.16,1.24.03Z"/>
          <path class="cls-8" d="m134.42,143.3c.52.71.48,1.62.02,2.14-.47.5-1.38.62-2.13.17-.76-.45-.93-1.55-.22-2.32.7-.78,1.81-.71,2.33,0Z"/>
          <path class="cls-8" d="m138.09,141.58c.16.87-.26,1.68-.9,1.94-.64.27-1.51-.02-2-.75-.49-.73-.17-1.79.79-2.19.97-.39,1.94.15,2.1,1.01Z"/>
          <path class="cls-8" d="m142.14,141.58c-.21.85-.94,1.41-1.64,1.39-.7-.04-1.36-.68-1.49-1.54-.05-.44.08-.86.38-1.16.3-.3.76-.52,1.27-.47,1.04.05,1.7.94,1.48,1.79Z"/>
          <path class="cls-8" d="m145.81,143.3c-.56.68-1.46.88-2.06.54-.62-.32-.95-1.17-.7-2.02.25-.84,1.26-1.27,2.2-.79.92.51,1.12,1.59.57,2.26Z"/>
          <path class="cls-8" d="m148.38,146.43c-.79.36-1.68.15-2.1-.4-.21-.29-.28-.65-.25-1.02.05-.38.2-.79.5-1.1.31-.32.71-.49,1.14-.44.43.03.88.26,1.18.68.63.84.34,1.92-.46,2.28Z"/>
          <path class="cls-8" d="m149.31,150.37c-.9-.03-1.57-.61-1.71-1.28-.04-.35.01-.69.24-1.03.19-.32.5-.61.92-.77.41-.15.85-.12,1.23.1.35.22.68.63.75,1.14.09.51-.03.99-.32,1.33-.27.34-.66.52-1.1.52Z"/>
        </g>
        <g>
          <g>
            <path class="cls-8" d="m118.19,127.83c-10,8.11-16.51,8.08-25.84.33,6.16-10.23,16.85-10.58,25.84-.33Z"/>
            <circle class="cls-2" cx="105.28" cy="127.13" r="5.2"/>
          </g>
          <g>
            <path class="cls-8" d="m169.91,127.83c-10,8.11-16.51,8.08-25.84.33,6.16-10.23,16.85-10.58,25.84-.33Z"/>
            <circle class="cls-2" cx="156.99" cy="127.13" r="5.2"/>
          </g>
        </g>
        <path class="cls-7" d="m130.76,149.44l6.3-5.91c.5-.47.71-1.17.55-1.83l-4.44-18.45c-.1-.41-.12-.83-.06-1.24l.93-6.76c.16-1.14-.73-2.16-1.88-2.16h-2.64c-1.19,0-2.09,1.08-1.87,2.25l1.23,6.55c.09.49.07.99-.05,1.47l-4.84,18.32c-.18.67.03,1.39.53,1.87l6.26,5.89"/>
      </g>
      <g>
        <path class="cls-1" d="m216.29,137.65c-1.17-.1-2.04-1.1-1.96-2.23.06-1.14,1.01-2.04,2.19-2.01,1.16.03,2.11,1.03,2.05,2.24-.09,1.2-1.11,2.1-2.28,2Z"/>
        <path class="cls-1" d="m215.45,144.69c-1.15-.19-1.92-1.26-1.79-2.39.14-1.13,1.2-1.94,2.37-1.82,1.16.13,1.98,1.2,1.83,2.4-.13,1.2-1.25,2.01-2.41,1.81Z"/>
        <path class="cls-1" d="m214.03,151.64c-1.13-.29-1.85-1.42-1.59-2.53.27-1.11,1.38-1.83,2.52-1.61,1.16.22,1.91,1.36,1.62,2.54-.27,1.18-1.41,1.9-2.55,1.61Z"/>
        <path class="cls-1" d="m212.01,158.43c-1.11-.38-1.71-1.57-1.34-2.64.32-1.09,1.48-1.73,2.61-1.41,1.12.32,1.78,1.52,1.44,2.67-.39,1.14-1.6,1.76-2.7,1.38Z"/>
        <path class="cls-1" d="m209.46,165.05c-1.07-.47-1.54-1.69-1.14-2.76.42-1.06,1.65-1.59,2.74-1.18,1.1.41,1.63,1.65,1.18,2.77-.43,1.13-1.72,1.63-2.78,1.16Z"/>
        <path class="cls-1" d="m206.37,171.43c-1.03-.56-1.44-1.84-.92-2.85.52-1.01,1.79-1.43,2.84-.94,1.07.5,1.5,1.79.94,2.86-.55,1.07-1.83,1.49-2.86.93Z"/>
        <path class="cls-1" d="m202.74,177.51c-.98-.64-1.27-1.94-.66-2.9.61-.96,1.86-1.31,2.88-.72,1,.58,1.37,1.92.72,2.94-.65,1.02-1.97,1.32-2.95.68Z"/>
        <path class="cls-1" d="m198.63,183.29c-.93-.73-1.07-2.01-.42-2.94.66-.93,1.98-1.14,2.94-.47.96.67,1.18,2,.48,2.99-.7.99-2.08,1.14-2.99.43Z"/>
        <path class="cls-1" d="m194.08,188.72c-.85-.78-.94-2.12-.2-2.99.75-.86,2.08-.96,2.99-.21.9.74,1,2.09.21,3-.79.91-2.13,1.01-3,.2Z"/>
        <path class="cls-1" d="m189.07,193.74c-.79-.86-.77-2.2.06-2.98.84-.77,2.14-.79,2.98.02.84.81.86,2.2-.03,3.02-.87.83-2.22.81-3.02-.05Z"/>
        <path class="cls-1" d="m183.67,198.34c-.72-.92-.57-2.24.32-2.95.86-.74,2.18-.64,2.95.25.77.88.66,2.24-.26,3.02-.95.75-2.3.6-3.02-.32Z"/>
        <path class="cls-1" d="m177.92,202.48c-.64-.98-.37-2.25.55-2.93.93-.66,2.24-.43,2.94.51.7.94.46,2.27-.52,2.97-.97.72-2.33.43-2.97-.55Z"/>
        <path class="cls-1" d="m171.85,206.14c-.56-1.03-.21-2.33.78-2.89.99-.57,2.29-.22,2.9.76.62,1.01.27,2.3-.77,2.9-1.05.6-2.35.25-2.9-.78Z"/>
        <path class="cls-1" d="m165.48,209.26c-.47-1.07,0-2.32,1.03-2.79,1.04-.46,2.27-.08,2.81.98.53,1.03.1,2.36-1,2.86-1.1.5-2.37.03-2.84-1.04Z"/>
        <path class="cls-1" d="m158.89,211.86c-.38-1.12.2-2.27,1.26-2.69,1.06-.42,2.28.12,2.72,1.21.44,1.08-.11,2.32-1.23,2.76-1.12.45-2.37-.18-2.74-1.28Z"/>
        <path class="cls-1" d="m152.1,213.92c-.28-1.12.37-2.31,1.47-2.61,1.09-.31,2.27.34,2.62,1.46.35,1.12-.31,2.29-1.47,2.62-1.16.33-2.33-.32-2.62-1.47Z"/>
        <path class="cls-1" d="m145.16,215.37c-.19-1.16.57-2.25,1.69-2.45,1.13-.18,2.22.49,2.48,1.65.25,1.13-.48,2.33-1.67,2.52-1.19.21-2.31-.55-2.49-1.71Z"/>
        <path class="cls-1" d="m138.13,216.25c-.1-1.18.75-2.15,1.88-2.3,1.13-.14,2.18.68,2.34,1.84.16,1.16-.68,2.22-1.88,2.37-1.2.16-2.25-.76-2.34-1.91Z"/>
        <path class="cls-1" d="m131.05,216.58c0-1.17.93-2.14,2.07-2.17,1.14-.03,2.12.9,2.18,2.06.07,1.18-.86,2.14-2.07,2.18-1.21.03-2.18-.89-2.18-2.07Z"/>
        <path class="cls-1" d="m123.97,216.29c.1-1.17,1.1-2.04,2.23-1.96,1.14.06,2.04,1.01,2.01,2.19-.03,1.16-1.03,2.11-2.24,2.05-1.2-.09-2.1-1.11-2-2.28Z"/>
        <path class="cls-1" d="m116.93,215.45c.19-1.15,1.26-1.92,2.39-1.79,1.13.14,1.94,1.2,1.82,2.37s-1.2,1.98-2.4,1.83c-1.2-.13-2.01-1.25-1.81-2.41Z"/>
        <path class="cls-1" d="m109.98,214.03c.29-1.13,1.42-1.85,2.53-1.59,1.11.27,1.83,1.38,1.61,2.52-.22,1.16-1.36,1.91-2.54,1.62-1.18-.27-1.9-1.41-1.61-2.55Z"/>
        <path class="cls-1" d="m103.18,212.01c.38-1.11,1.57-1.71,2.64-1.34,1.09.32,1.73,1.48,1.41,2.61-.32,1.12-1.52,1.78-2.67,1.44-1.14-.39-1.76-1.6-1.38-2.7Z"/>
        <path class="cls-1" d="m96.57,209.46c.47-1.07,1.69-1.54,2.76-1.14,1.06.42,1.59,1.65,1.18,2.74-.41,1.1-1.65,1.63-2.77,1.18-1.13-.43-1.63-1.72-1.16-2.78Z"/>
        <path class="cls-1" d="m90.19,206.37c.56-1.03,1.84-1.44,2.85-.92,1.01.52,1.43,1.79.94,2.84-.5,1.07-1.79,1.5-2.86.94-1.07-.55-1.49-1.83-.93-2.86Z"/>
        <path class="cls-1" d="m84.1,202.74c.64-.98,1.94-1.27,2.9-.66.96.61,1.31,1.86.72,2.88-.58,1-1.92,1.37-2.94.72-1.02-.65-1.32-1.97-.68-2.95Z"/>
        <path class="cls-1" d="m78.33,198.63c.73-.93,2.01-1.07,2.94-.42.93.66,1.14,1.98.47,2.94-.67.96-2,1.18-2.99.48-.99-.7-1.14-2.08-.43-2.99Z"/>
        <path class="cls-1" d="m72.89,194.08c.78-.85,2.12-.94,2.99-.2.86.75.96,2.08.21,2.99-.74.9-2.09,1-3,.21-.91-.79-1.01-2.13-.2-3Z"/>
        <path class="cls-1" d="m67.87,189.07c.86-.79,2.2-.77,2.98.06.77.84.79,2.14-.02,2.98-.81.84-2.2.86-3.02-.03-.83-.87-.81-2.22.05-3.02Z"/>
        <path class="cls-1" d="m63.28,183.67c.92-.72,2.24-.57,2.95.32.74.86.64,2.18-.25,2.95-.88.77-2.24.66-3.02-.26-.75-.95-.6-2.3.32-3.02Z"/>
        <path class="cls-1" d="m59.14,177.92c.98-.64,2.25-.37,2.93.55.66.93.43,2.24-.51,2.94-.94.7-2.27.46-2.97-.52-.72-.97-.43-2.33.55-2.97Z"/>
        <path class="cls-1" d="m55.47,171.85c1.03-.56,2.33-.21,2.89.78.57.99.22,2.29-.76,2.9-1.01.62-2.3.27-2.9-.77-.6-1.05-.25-2.35.78-2.9Z"/>
        <path class="cls-1" d="m52.35,165.48c1.07-.47,2.32,0,2.79,1.03.46,1.04.08,2.27-.98,2.81-1.03.53-2.36.1-2.86-1-.5-1.1-.03-2.37,1.04-2.84Z"/>
        <path class="cls-1" d="m49.76,158.89c1.12-.38,2.27.2,2.69,1.26.42,1.06-.12,2.28-1.21,2.72-1.08.44-2.32-.11-2.76-1.23-.45-1.12.18-2.37,1.28-2.74Z"/>
        <path class="cls-1" d="m47.7,152.1c1.12-.28,2.31.37,2.61,1.47.31,1.09-.34,2.27-1.46,2.62-1.12.35-2.29-.31-2.62-1.47-.33-1.16.32-2.33,1.47-2.62Z"/>
        <path class="cls-1" d="m46.25,145.16c1.16-.19,2.25.57,2.45,1.69.18,1.13-.49,2.22-1.65,2.48-1.13.25-2.33-.48-2.52-1.67-.21-1.19.55-2.31,1.71-2.49Z"/>
        <path class="cls-1" d="m45.36,138.13c1.18-.1,2.15.75,2.3,1.88.14,1.13-.68,2.18-1.84,2.34s-2.22-.68-2.37-1.88c-.16-1.2.76-2.25,1.91-2.34Z"/>
        <path class="cls-1" d="m45.04,131.05c1.17,0,2.14.93,2.17,2.07.03,1.14-.9,2.12-2.06,2.18-1.18.07-2.14-.86-2.18-2.07-.03-1.21.89-2.18,2.07-2.18Z"/>
        <path class="cls-1" d="m45.33,123.97c1.17.1,2.04,1.1,1.96,2.23-.06,1.14-1.01,2.04-2.19,2.01-1.16-.03-2.11-1.03-2.05-2.24.09-1.2,1.11-2.1,2.28-2Z"/>
        <path class="cls-1" d="m46.17,116.93c1.15.19,1.92,1.26,1.79,2.39-.14,1.13-1.2,1.94-2.37,1.82-1.16-.13-1.98-1.2-1.83-2.4.13-1.2,1.25-2.01,2.41-1.81Z"/>
        <path class="cls-1" d="m47.59,109.98c1.13.29,1.85,1.42,1.59,2.53-.27,1.11-1.38,1.83-2.52,1.61-1.16-.22-1.91-1.36-1.62-2.54.27-1.18,1.41-1.9,2.55-1.61Z"/>
        <path class="cls-1" d="m49.6,103.18c1.11.38,1.71,1.57,1.34,2.64-.32,1.09-1.48,1.73-2.61,1.41-1.12-.32-1.78-1.52-1.44-2.67.39-1.14,1.6-1.76,2.7-1.38Z"/>
        <path class="cls-1" d="m52.15,96.57c1.07.47,1.54,1.69,1.14,2.76-.42,1.06-1.65,1.59-2.74,1.18s-1.63-1.65-1.18-2.77c.43-1.13,1.72-1.63,2.78-1.16Z"/>
        <path class="cls-1" d="m55.25,90.19c1.03.56,1.44,1.84.92,2.85-.52,1.01-1.79,1.43-2.84.94-1.07-.5-1.5-1.79-.94-2.86.55-1.07,1.83-1.49,2.86-.93Z"/>
        <path class="cls-1" d="m58.88,84.1c.98.64,1.27,1.94.66,2.9-.61.96-1.86,1.31-2.88.72-1-.58-1.37-1.92-.72-2.94.65-1.02,1.97-1.32,2.95-.68Z"/>
        <path class="cls-1" d="m62.98,78.33c.93.73,1.07,2.01.42,2.94-.66.93-1.98,1.14-2.94.47-.96-.67-1.18-2-.48-2.99.7-.99,2.08-1.14,2.99-.43Z"/>
        <path class="cls-1" d="m67.54,72.89c.85.78.94,2.12.2,2.99-.75.86-2.08.96-2.99.21-.9-.74-1-2.09-.21-3,.79-.91,2.13-1.01,3-.2Z"/>
        <path class="cls-1" d="m72.55,67.87c.79.86.77,2.2-.06,2.98-.84.77-2.14.79-2.98-.02-.84-.81-.86-2.2.03-3.02.87-.83,2.22-.81,3.02.05Z"/>
        <path class="cls-1" d="m77.95,63.28c.72.92.57,2.24-.32,2.95-.86.74-2.18.64-2.95-.25-.77-.88-.66-2.24.26-3.02.95-.75,2.3-.6,3.02.32Z"/>
        <path class="cls-1" d="m83.7,59.14c.64.98.37,2.25-.55,2.93-.93.66-2.24.43-2.94-.51-.7-.94-.46-2.27.52-2.97.97-.72,2.33-.43,2.97.55Z"/>
        <path class="cls-1" d="m89.77,55.47c.56,1.03.21,2.33-.78,2.89-.99.57-2.29.22-2.9-.76-.62-1.01-.27-2.3.77-2.9,1.05-.6,2.35-.25,2.9.78Z"/>
        <path class="cls-1" d="m96.13,52.35c.47,1.07,0,2.32-1.03,2.79-1.04.46-2.27.08-2.81-.98-.53-1.03-.1-2.36,1-2.86,1.1-.5,2.37-.03,2.84,1.04Z"/>
        <path class="cls-1" d="m102.73,49.76c.38,1.12-.2,2.27-1.26,2.69-1.06.42-2.28-.12-2.72-1.21-.44-1.08.11-2.32,1.23-2.76,1.12-.45,2.37.18,2.74,1.28Z"/>
        <path class="cls-1" d="m109.51,47.7c.28,1.12-.37,2.31-1.47,2.61-1.09.31-2.27-.34-2.62-1.46s.31-2.29,1.47-2.62c1.16-.33,2.33.32,2.62,1.47Z"/>
        <path class="cls-1" d="m116.45,46.25c.19,1.16-.57,2.25-1.69,2.45-1.13.18-2.22-.49-2.48-1.65-.25-1.13.48-2.33,1.67-2.52,1.19-.21,2.31.55,2.49,1.71Z"/>
        <path class="cls-1" d="m123.49,45.36c.1,1.18-.75,2.15-1.88,2.3-1.13.14-2.18-.68-2.34-1.84-.16-1.16.68-2.22,1.88-2.37,1.2-.16,2.25.76,2.34,1.91Z"/>
        <path class="cls-1" d="m130.57,45.04c0,1.17-.93,2.14-2.07,2.17-1.14.03-2.12-.9-2.18-2.06-.07-1.18.86-2.14,2.07-2.18,1.21-.03,2.18.89,2.18,2.07Z"/>
        <path class="cls-1" d="m137.65,45.33c-.1,1.17-1.1,2.04-2.23,1.96-1.14-.06-2.04-1.01-2.01-2.19.03-1.16,1.03-2.11,2.24-2.05,1.2.09,2.1,1.11,2,2.28Z"/>
        <path class="cls-1" d="m144.69,46.17c-.19,1.15-1.26,1.92-2.39,1.79-1.13-.14-1.94-1.2-1.82-2.37s1.2-1.98,2.4-1.83c1.2.13,2.01,1.25,1.81,2.41Z"/>
        <path class="cls-1" d="m151.64,47.59c-.29,1.13-1.42,1.85-2.53,1.59-1.11-.27-1.83-1.38-1.61-2.52.22-1.16,1.36-1.91,2.54-1.62,1.18.27,1.9,1.41,1.61,2.55Z"/>
        <path class="cls-1" d="m158.43,49.6c-.38,1.11-1.57,1.71-2.64,1.34-1.09-.32-1.73-1.48-1.41-2.61.32-1.12,1.52-1.78,2.67-1.44,1.14.39,1.76,1.6,1.38,2.7Z"/>
        <path class="cls-1" d="m165.05,52.15c-.47,1.07-1.69,1.54-2.76,1.14-1.06-.42-1.59-1.65-1.18-2.74.41-1.1,1.65-1.63,2.77-1.18,1.13.43,1.63,1.72,1.16,2.78Z"/>
        <path class="cls-1" d="m171.43,55.25c-.56,1.03-1.84,1.44-2.85.92-1.01-.52-1.43-1.79-.94-2.84.5-1.07,1.79-1.5,2.86-.94,1.07.55,1.49,1.83.93,2.86Z"/>
        <path class="cls-1" d="m177.51,58.88c-.64.98-1.94,1.27-2.9.66-.96-.61-1.31-1.86-.72-2.88.58-1,1.92-1.37,2.94-.72,1.02.65,1.32,1.97.68,2.95Z"/>
        <path class="cls-1" d="m183.29,62.98c-.73.93-2.01,1.07-2.94.42-.93-.66-1.14-1.98-.47-2.94.67-.96,2-1.18,2.99-.48.99.7,1.14,2.08.43,2.99Z"/>
        <path class="cls-1" d="m188.72,67.54c-.78.85-2.12.94-2.99.2-.86-.75-.96-2.08-.21-2.99.74-.9,2.09-1,3-.21.91.79,1.01,2.13.2,3Z"/>
        <path class="cls-1" d="m193.74,72.55c-.86.79-2.2.77-2.98-.06-.77-.84-.79-2.14.02-2.98.81-.84,2.2-.86,3.02.03.83.87.81,2.22-.05,3.02Z"/>
        <path class="cls-1" d="m198.34,77.95c-.92.72-2.24.57-2.95-.32-.74-.86-.64-2.18.25-2.95.88-.77,2.24-.66,3.02.26.75.95.6,2.3-.32,3.02Z"/>
        <path class="cls-1" d="m202.48,83.7c-.98.64-2.25.37-2.93-.55-.66-.93-.43-2.24.51-2.94.94-.7,2.27-.46,2.97.52.72.97.43,2.33-.55,2.97Z"/>
        <path class="cls-1" d="m206.14,89.77c-1.03.56-2.33.21-2.89-.78-.57-.99-.22-2.29.76-2.9,1.01-.62,2.3-.27,2.9.77.6,1.05.25,2.35-.78,2.9Z"/>
        <path class="cls-1" d="m209.26,96.13c-1.07.47-2.32,0-2.79-1.03-.46-1.04-.08-2.27.98-2.81,1.03-.53,2.36-.1,2.86,1,.5,1.1.03,2.37-1.04,2.84Z"/>
        <path class="cls-1" d="m211.86,102.73c-1.12.38-2.27-.2-2.69-1.26-.42-1.06.12-2.28,1.21-2.72,1.08-.44,2.32.11,2.76,1.23.45,1.12-.18,2.37-1.28,2.74Z"/>
        <path class="cls-1" d="m213.92,109.51c-1.12.28-2.31-.37-2.61-1.47-.31-1.09.34-2.27,1.46-2.62s2.29.31,2.62,1.47c.33,1.16-.32,2.33-1.47,2.62Z"/>
        <path class="cls-1" d="m215.37,116.45c-1.16.19-2.25-.57-2.45-1.69-.18-1.13.49-2.22,1.65-2.48,1.13-.25,2.33.48,2.52,1.67.21,1.19-.55,2.31-1.71,2.49Z"/>
        <path class="cls-1" d="m216.25,123.49c-1.18.1-2.15-.75-2.3-1.88-.14-1.13.68-2.18,1.84-2.34,1.16-.16,2.22.68,2.37,1.88.16,1.2-.76,2.25-1.91,2.34Z"/>
        <path class="cls-1" d="m216.58,130.57c-1.17,0-2.14-.93-2.17-2.07-.03-1.14.9-2.12,2.06-2.18,1.18-.07,2.14.86,2.18,2.07.03,1.21-.89,2.18-2.07,2.18Z"/>
      </g>
      <circle class="cls-3" cx="130.81" cy="130.81" r="125.31"/>
      <g>
        <path class="cls-8" d="m255.77,139.65c-1.22-.09-2.14-1.13-2.05-2.32.05-1.2,1.05-2.13,2.28-2.1,1.22.04,2.2,1.08,2.15,2.33-.09,1.24-1.16,2.18-2.38,2.09Z"/>
        <path class="cls-8" d="m254.86,148.44c-1.21-.17-2.07-1.28-1.92-2.46.15-1.19,1.26-2.05,2.48-1.92,1.22.12,2.08,1.23,1.92,2.46-.16,1.24-1.27,2.1-2.48,1.92Z"/>
        <path class="cls-8" d="m253.32,157.15c-1.2-.26-1.92-1.41-1.73-2.59.21-1.18,1.36-1.96,2.56-1.75,1.21.21,2.01,1.37,1.79,2.6-.2,1.23-1.43,2-2.62,1.74Z"/>
        <path class="cls-8" d="m251.15,165.73c-1.17-.34-1.86-1.56-1.54-2.71.34-1.15,1.53-1.85,2.71-1.56,1.2.3,1.93,1.52,1.57,2.71-.34,1.2-1.57,1.89-2.74,1.55Z"/>
        <path class="cls-8" d="m248.42,174.14c-1.13-.42-1.75-1.69-1.37-2.82.38-1.13,1.64-1.74,2.8-1.37,1.16.38,1.78,1.64,1.38,2.82-.4,1.18-1.65,1.79-2.81,1.36Z"/>
        <path class="cls-8" d="m245.04,182.31c-1.11-.51-1.62-1.8-1.12-2.89.51-1.08,1.73-1.63,2.88-1.17,1.12.45,1.72,1.79,1.19,2.92-.51,1.14-1.83,1.65-2.95,1.14Z"/>
        <path class="cls-8" d="m241.14,190.25c-1.08-.58-1.51-1.92-.96-2.99.55-1.06,1.88-1.49,2.98-.95,1.1.54,1.53,1.88.96,2.99s-1.9,1.54-2.98.95Z"/>
        <path class="cls-8" d="m236.64,197.87c-1.03-.66-1.34-2.01-.7-3.02.62-1.02,1.94-1.37,3-.76,1.05.61,1.42,2,.78,3.07-.67,1.05-2.05,1.37-3.09.71Z"/>
        <path class="cls-8" d="m231.66,205.17c-.98-.73-1.22-2.11-.52-3.09.69-.97,2.08-1.21,3.09-.52s1.25,2.07.52,3.09c-.72,1.02-2.11,1.25-3.09.52Z"/>
        <path class="cls-8" d="m226.14,212.09c-.93-.8-1.04-2.17-.27-3.08.74-.94,2.12-1.09,3.08-.33.96.76,1.12,2.17.34,3.15-.81.95-2.23,1.06-3.15.27Z"/>
        <path class="cls-8" d="m220.18,218.61c-.87-.86-.91-2.26-.08-3.13.83-.87,2.23-.9,3.13-.08.91.82.94,2.22.08,3.13-.86.9-2.26.94-3.13.08Z"/>
        <path class="cls-8" d="m213.76,224.7c-.81-.93-.71-2.28.16-3.1.87-.83,2.25-.78,3.1.11.85.89.8,2.3-.1,3.16-.91.85-2.35.74-3.15-.17Z"/>
        <path class="cls-8" d="m206.93,230.32c-.74-.97-.58-2.36.36-3.1.94-.74,2.34-.57,3.12.37.78.94.62,2.33-.36,3.1-.98.77-2.38.61-3.12-.37Z"/>
        <path class="cls-8" d="m199.73,235.45c-.68-1.04-.38-2.34.59-3.06.97-.69,2.34-.45,3.06.55s.47,2.39-.55,3.11c-1,.74-2.43.41-3.09-.6Z"/>
        <path class="cls-8" d="m192.17,240.05c-.6-1.07-.24-2.42.8-3.01,1.04-.6,2.4-.23,3.03.8.65,1.06.29,2.4-.79,3.02-1.08.62-2.44.26-3.04-.81Z"/>
        <path class="cls-8" d="m184.33,244.13c-.52-1.11-.05-2.39,1-2.96,1.06-.55,2.39-.11,2.95.98.57,1.09.12,2.43-.99,2.99-1.1.59-2.45.09-2.97-1.02Z"/>
        <path class="cls-8" d="m176.19,247.61c-.44-1.14.11-2.42,1.22-2.86,1.12-.42,2.4.09,2.88,1.2.49,1.13-.04,2.46-1.2,2.9-1.16.46-2.46-.1-2.9-1.24Z"/>
        <path class="cls-8" d="m167.85,250.55c-.35-1.15.27-2.42,1.41-2.8,1.13-.38,2.38.24,2.79,1.4.41,1.15-.22,2.41-1.4,2.81-1.18.4-2.43-.22-2.79-1.41Z"/>
        <path class="cls-8" d="m159.31,252.82c-.27-1.19.45-2.38,1.61-2.65,1.17-.26,2.35.38,2.68,1.58.32,1.17-.38,2.45-1.6,2.72-1.22.28-2.42-.46-2.7-1.65Z"/>
        <path class="cls-8" d="m150.63,254.54c-.19-1.21.61-2.36,1.79-2.57,1.18-.21,2.33.59,2.56,1.79.24,1.2-.56,2.35-1.79,2.57-1.23.22-2.38-.58-2.56-1.79Z"/>
        <path class="cls-8" d="m141.85,255.6c-.1-1.23.78-2.26,1.97-2.39,1.19-.15,2.27.71,2.43,1.93.15,1.21-.73,2.33-1.96,2.48-1.24.14-2.33-.8-2.43-2.01Z"/>
        <path class="cls-8" d="m133.02,256.06c-.02-1.22.94-2.24,2.13-2.27,1.2-.03,2.22.94,2.29,2.15.07,1.24-.89,2.24-2.13,2.28-1.25.03-2.27-.94-2.29-2.16Z"/>
        <path class="cls-8" d="m124.18,255.94c.07-1.2,1.09-2.18,2.29-2.15,1.2.03,2.15,1.05,2.13,2.27-.02,1.22-1.04,2.19-2.29,2.16-1.25-.04-2.2-1.04-2.13-2.28Z"/>
        <path class="cls-8" d="m115.37,255.14c.15-1.21,1.24-2.08,2.43-1.93,1.19.13,2.08,1.16,1.97,2.39-.1,1.21-1.2,2.15-2.43,2.01-1.24-.16-2.12-1.27-1.96-2.48Z"/>
        <path class="cls-8" d="m106.63,253.76c.24-1.2,1.39-2,2.56-1.79,1.18.21,1.98,1.36,1.79,2.57-.19,1.21-1.34,2.01-2.56,1.79-1.23-.22-2.03-1.37-1.79-2.57Z"/>
        <path class="cls-8" d="m98.02,251.75c.33-1.2,1.51-1.84,2.68-1.58,1.17.27,1.89,1.45,1.61,2.65-.27,1.19-1.48,1.93-2.7,1.65-1.22-.27-1.92-1.55-1.6-2.72Z"/>
        <path class="cls-8" d="m89.57,249.14c.41-1.15,1.65-1.78,2.79-1.4,1.13.38,1.76,1.65,1.41,2.8-.36,1.19-1.61,1.81-2.79,1.41-1.18-.4-1.81-1.66-1.4-2.81Z"/>
        <path class="cls-8" d="m81.32,245.95c.49-1.12,1.76-1.63,2.88-1.2,1.11.44,1.66,1.72,1.22,2.86s-1.74,1.7-2.9,1.24c-1.17-.44-1.69-1.77-1.2-2.9Z"/>
        <path class="cls-8" d="m73.34,242.15c.57-1.09,1.89-1.52,2.95-.98,1.06.56,1.52,1.85,1,2.96-.52,1.11-1.87,1.6-2.97,1.02-1.11-.57-1.55-1.91-.99-2.99Z"/>
        <path class="cls-8" d="m65.61,237.84c.63-1.03,2-1.39,3.03-.8,1.04.6,1.39,1.95.8,3.01-.6,1.07-1.96,1.43-3.04.81-1.08-.62-1.44-1.97-.79-3.02Z"/>
        <path class="cls-8" d="m58.25,232.94c.71-.99,2.08-1.24,3.06-.55.96.71,1.27,2.02.59,3.06-.66,1.01-2.09,1.34-3.09.6-1.02-.72-1.26-2.11-.55-3.11Z"/>
        <path class="cls-8" d="m51.21,227.59c.78-.94,2.18-1.11,3.12-.37.94.74,1.1,2.13.36,3.1-.74.97-2.14,1.14-3.12.37-.98-.77-1.14-2.16-.36-3.1Z"/>
        <path class="cls-8" d="m44.6,221.7c.85-.89,2.23-.93,3.1-.11.87.82.97,2.17.16,3.1-.8.91-2.24,1.02-3.15.17-.9-.86-.95-2.28-.1-3.16Z"/>
        <path class="cls-8" d="m38.39,215.41c.91-.82,2.31-.79,3.13.08.83.87.79,2.27-.08,3.13s-2.27.83-3.13-.08c-.86-.9-.82-2.3.08-3.13Z"/>
        <path class="cls-8" d="m32.66,208.67c.96-.76,2.34-.61,3.08.33.77.91.66,2.29-.27,3.08-.93.8-2.35.68-3.15-.27-.77-.98-.62-2.39.34-3.15Z"/>
        <path class="cls-8" d="m27.4,201.57c1.01-.69,2.39-.46,3.09.52.69.97.46,2.36-.52,3.09-.98.73-2.36.5-3.09-.52-.72-1.02-.49-2.4.52-3.09Z"/>
        <path class="cls-8" d="m22.67,194.09c1.06-.62,2.39-.27,3,.76.65,1.01.33,2.36-.7,3.02-1.03.66-2.41.34-3.09-.71-.64-1.07-.27-2.45.78-3.07Z"/>
        <path class="cls-8" d="m18.46,186.31c1.1-.54,2.43-.11,2.98.95.55,1.06.11,2.4-.96,2.99s-2.41.16-2.98-.95c-.57-1.11-.14-2.45.96-2.99Z"/>
        <path class="cls-8" d="m14.82,178.25c1.15-.47,2.37.08,2.88,1.17.49,1.09-.01,2.38-1.12,2.89-1.11.51-2.43,0-2.95-1.14-.53-1.13.07-2.47,1.19-2.92Z"/>
        <path class="cls-8" d="m11.77,169.95c1.16-.38,2.42.23,2.8,1.37.38,1.13-.24,2.4-1.37,2.82-1.16.43-2.41-.18-2.81-1.36-.4-1.18.22-2.45,1.38-2.82Z"/>
        <path class="cls-8" d="m9.29,161.46c1.18-.29,2.37.41,2.71,1.56.33,1.15-.36,2.36-1.54,2.71-1.17.34-2.4-.35-2.74-1.55-.36-1.2.37-2.42,1.57-2.71Z"/>
        <path class="cls-8" d="m7.46,152.81c1.21-.21,2.35.57,2.56,1.75.19,1.18-.53,2.33-1.73,2.59-1.19.26-2.42-.51-2.62-1.74-.22-1.23.58-2.39,1.79-2.6Z"/>
        <path class="cls-8" d="m6.2,144.05c1.22-.12,2.33.74,2.48,1.92.15,1.19-.71,2.29-1.92,2.46-1.21.17-2.32-.69-2.48-1.92-.16-1.24.7-2.34,1.92-2.46Z"/>
        <path class="cls-8" d="m5.61,135.23c1.23-.04,2.23.9,2.28,2.1.09,1.19-.82,2.23-2.05,2.32-1.22.09-2.29-.85-2.38-2.09-.05-1.25.93-2.29,2.15-2.33Z"/>
        <path class="cls-8" d="m5.61,126.39c1.22.05,2.19,1.05,2.16,2.25-.03,1.2-1.05,2.17-2.27,2.17-1.22,0-2.19-1-2.16-2.25.03-1.25,1.05-2.22,2.27-2.17Z"/>
        <path class="cls-8" d="m6.2,117.56c1.2.13,2.1,1.2,2.02,2.4-.09,1.19-1.15,2.09-2.38,2.01-1.22-.08-2.13-1.16-2.04-2.4.09-1.24,1.17-2.14,2.4-2.01Z"/>
        <path class="cls-8" d="m7.46,108.81c1.2.22,2.01,1.35,1.8,2.53-.22,1.18-1.28,2.01-2.5,1.84-1.2-.16-2.11-1.31-1.87-2.54.22-1.23,1.37-2.05,2.58-1.83Z"/>
        <path class="cls-8" d="m9.29,100.16c1.19.3,1.93,1.49,1.66,2.66-.27,1.17-1.46,1.91-2.66,1.65-1.2-.25-1.94-1.44-1.66-2.66.28-1.22,1.47-1.96,2.66-1.65Z"/>
        <path class="cls-8" d="m11.77,91.67c1.17.39,1.78,1.61,1.42,2.75-.33,1.15-1.54,1.81-2.72,1.47-1.18-.34-1.85-1.58-1.51-2.78.38-1.19,1.66-1.83,2.82-1.44Z"/>
        <path class="cls-8" d="m14.82,83.36c1.13.47,1.69,1.75,1.25,2.86-.44,1.11-1.73,1.67-2.88,1.25-1.15-.42-1.71-1.7-1.25-2.86.46-1.16,1.75-1.72,2.88-1.25Z"/>
        <path class="cls-8" d="m18.46,75.3c1.11.55,1.5,1.83,1.03,2.94-.49,1.09-1.8,1.57-2.91,1.07-1.12-.5-1.61-1.83-1.09-2.96.49-1.15,1.89-1.58,2.97-1.04Z"/>
        <path class="cls-8" d="m22.67,67.52c1.05.62,1.43,1.97.83,3-.6,1.04-1.95,1.41-3.02.84-1.09-.59-1.47-1.93-.84-3.01.62-1.08,1.98-1.45,3.03-.83Z"/>
        <path class="cls-8" d="m27.4,60.05c1,.69,1.25,2.04.62,3.06-.65,1.01-2.01,1.29-3.04.64-1.04-.65-1.33-2.03-.66-3.08.66-1.06,2.07-1.32,3.08-.62Z"/>
        <path class="cls-8" d="m32.66,52.95c.96.76,1.13,2.15.39,3.09-.75.93-2.12,1.13-3.1.41-.99-.73-1.21-2.14-.42-3.11.77-.98,2.17-1.16,3.13-.39Z"/>
        <path class="cls-8" d="m38.39,46.2c.89.82.97,2.21.2,3.12-.78.9-2.17,1-3.11.2-.93-.79-1.03-2.2-.21-3.14.81-.95,2.22-1.03,3.13-.19Z"/>
        <path class="cls-8" d="m44.6,39.91c.84.89.82,2.28-.05,3.11-.88.81-2.24.84-3.12-.02-.87-.85-.91-2.3.01-3.14.9-.86,2.31-.84,3.15.05Z"/>
        <path class="cls-8" d="m51.21,34.03c.77.94.67,2.35-.24,3.13-.9.78-2.3.68-3.11-.24-.81-.91-.71-2.32.23-3.13.94-.81,2.33-.71,3.11.24Z"/>
        <path class="cls-8" d="m58.25,28.68c.71,1,.49,2.37-.49,3.06-.98.68-2.32.54-3.08-.44-.74-.96-.58-2.41.44-3.12,1.02-.72,2.41-.5,3.12.5Z"/>
        <path class="cls-8" d="m65.61,23.78c.63,1.05.33,2.42-.67,3.06-1.01.65-2.37.34-3.05-.68-.68-1.02-.38-2.39.67-3.06,1.05-.67,2.42-.37,3.05.68Z"/>
        <path class="cls-8" d="m73.34,19.47c.56,1.09.15,2.41-.92,2.96-1.05.57-2.37.21-2.98-.86-.6-1.06-.22-2.45.87-3.04,1.11-.57,2.46-.15,3.02.94Z"/>
        <path class="cls-8" d="m81.32,15.67c.48,1.13-.01,2.44-1.1,2.93s-2.4,0-2.93-1.11-.03-2.42,1.1-2.93c1.14-.51,2.45-.02,2.93,1.11Z"/>
        <path class="cls-8" d="m89.57,12.48c.4,1.16-.2,2.39-1.32,2.8-1.11.44-2.38-.13-2.82-1.27s.13-2.43,1.29-2.89c1.17-.42,2.46.21,2.86,1.36Z"/>
        <path class="cls-8" d="m98.02,9.86c.32,1.18-.36,2.41-1.51,2.73-1.15.33-2.38-.36-2.74-1.52-.37-1.17.31-2.39,1.51-2.73,1.2-.34,2.43.34,2.74,1.52Z"/>
        <path class="cls-8" d="m106.63,7.85c.23,1.21-.54,2.32-1.7,2.61-1.17.27-2.34-.48-2.62-1.67-.28-1.19.48-2.38,1.69-2.66,1.21-.3,2.4.53,2.63,1.72Z"/>
        <path class="cls-8" d="m115.37,6.48c.15,1.22-.7,2.32-1.88,2.47-1.19.13-2.3-.68-2.5-1.88-.2-1.22.64-2.37,1.88-2.51,1.24-.16,2.36.7,2.5,1.92Z"/>
        <path class="cls-8" d="m124.18,5.68c.06,1.22-.86,2.29-2.05,2.38-1.19.09-2.25-.82-2.36-2.04-.11-1.22.81-2.28,2.05-2.38,1.24-.09,2.3.82,2.36,2.04Z"/>
        <path class="cls-8" d="m133.02,5.56c-.03,1.22-1.02,2.19-2.21,2.16-1.2.03-2.19-.94-2.21-2.16-.03-1.22.96-2.24,2.21-2.27,1.25.03,2.24,1.05,2.21,2.27Z"/>
        <path class="cls-8" d="m141.85,6.01c-.11,1.22-1.17,2.13-2.36,2.04-1.19-.09-2.11-1.16-2.05-2.38.06-1.22,1.12-2.14,2.36-2.04,1.24.09,2.16,1.16,2.05,2.38Z"/>
        <path class="cls-8" d="m150.63,7.08c-.19,1.2-1.31,2.01-2.5,1.88-1.19-.15-2.03-1.26-1.88-2.47.15-1.22,1.27-2.07,2.5-1.92,1.24.14,2.08,1.29,1.88,2.51Z"/>
        <path class="cls-8" d="m159.31,8.79c-.28,1.19-1.45,1.94-2.62,1.67-1.16-.29-1.93-1.4-1.7-2.61.23-1.19,1.42-2.03,2.63-1.72,1.22.28,1.97,1.47,1.69,2.66Z"/>
        <path class="cls-8" d="m167.85,11.07c-.37,1.17-1.59,1.85-2.74,1.52-1.15-.33-1.83-1.55-1.51-2.73s1.54-1.87,2.74-1.52c1.2.34,1.88,1.56,1.51,2.73Z"/>
        <path class="cls-8" d="m176.19,14.01c-.45,1.14-1.71,1.71-2.82,1.27-1.12-.41-1.73-1.64-1.32-2.8.4-1.15,1.68-1.78,2.86-1.36,1.16.46,1.74,1.75,1.29,2.89Z"/>
        <path class="cls-8" d="m184.33,17.49c-.53,1.1-1.84,1.6-2.93,1.11-1.09-.49-1.58-1.81-1.1-2.93s1.79-1.62,2.93-1.11c1.14.51,1.63,1.83,1.1,2.93Z"/>
        <path class="cls-8" d="m192.17,21.57c-.61,1.07-1.93,1.43-2.98.86-1.06-.54-1.47-1.87-.92-2.96.56-1.09,1.91-1.51,3.02-.94,1.1.59,1.47,1.98.87,3.04Z"/>
        <path class="cls-8" d="m199.73,26.17c-.68,1.02-2.04,1.32-3.05.68-1.01-.65-1.31-2.02-.67-3.06.63-1.05,2-1.35,3.05-.68,1.05.67,1.35,2.05.67,3.06Z"/>
        <path class="cls-8" d="m206.93,31.3c-.76.98-2.09,1.13-3.08.44-.97-.69-1.19-2.06-.49-3.06.71-1,2.1-1.22,3.12-.5,1.02.71,1.18,2.16.44,3.12Z"/>
        <path class="cls-8" d="m213.76,36.92c-.81.91-2.21,1.02-3.11.24-.91-.78-1-2.19-.24-3.13.78-.96,2.17-1.06,3.11-.24.94.82,1.05,2.22.23,3.13Z"/>
        <path class="cls-8" d="m220.18,43c-.88.86-2.24.83-3.12.02-.87-.83-.89-2.22-.05-3.11.84-.89,2.25-.92,3.15-.05.92.85.88,2.29.01,3.14Z"/>
        <path class="cls-8" d="m226.14,49.53c-.93.79-2.33.7-3.11-.2-.78-.91-.69-2.3.2-3.12.91-.84,2.32-.76,3.13.19.82.94.72,2.35-.21,3.14Z"/>
        <path class="cls-8" d="m231.66,56.45c-.98.72-2.34.52-3.1-.41-.74-.94-.56-2.32.39-3.09.96-.76,2.36-.59,3.13.39.78.97.57,2.38-.42,3.11Z"/>
        <path class="cls-8" d="m236.64,63.75c-1.04.65-2.4.37-3.04-.64-.63-1.02-.38-2.37.62-3.06,1.01-.7,2.42-.44,3.08.62.67,1.05.38,2.43-.66,3.08Z"/>
        <path class="cls-8" d="m241.14,71.37c-1.07.57-2.42.2-3.02-.84-.6-1.04-.23-2.38.83-3,1.05-.62,2.41-.25,3.03.83.62,1.08.25,2.43-.84,3.01Z"/>
        <path class="cls-8" d="m245.04,79.31c-1.12.5-2.42.02-2.91-1.07-.47-1.1-.08-2.38,1.03-2.94,1.08-.54,2.48-.11,2.97,1.04.51,1.14.02,2.46-1.09,2.96Z"/>
        <path class="cls-8" d="m248.42,87.48c-1.15.42-2.44-.14-2.88-1.25-.44-1.11.12-2.39,1.25-2.86,1.13-.47,2.42.09,2.88,1.25.46,1.16-.1,2.44-1.25,2.86Z"/>
        <path class="cls-8" d="m251.15,95.89c-1.18.34-2.4-.32-2.72-1.47-.36-1.14.25-2.37,1.42-2.75,1.16-.38,2.44.26,2.82,1.44.34,1.2-.34,2.45-1.51,2.78Z"/>
        <path class="cls-8" d="m253.32,104.47c-1.2.25-2.39-.49-2.66-1.65-.27-1.17.48-2.35,1.66-2.66,1.19-.3,2.38.44,2.66,1.65.28,1.22-.46,2.4-1.66,2.66Z"/>
        <path class="cls-8" d="m254.86,113.17c-1.23.17-2.28-.67-2.5-1.84-.21-1.18.6-2.31,1.8-2.53,1.2-.22,2.36.6,2.58,1.83.23,1.23-.68,2.37-1.87,2.54Z"/>
        <path class="cls-8" d="m255.77,121.97c-1.22.08-2.28-.82-2.38-2.01-.08-1.19.82-2.27,2.02-2.4,1.23-.13,2.31.77,2.4,2.01.09,1.24-.82,2.32-2.04,2.4Z"/>
        <path class="cls-8" d="m256.12,130.81c-1.22,0-2.24-.98-2.27-2.17-.03-1.2.94-2.2,2.16-2.25,1.22-.05,2.24.93,2.27,2.17.03,1.25-.94,2.25-2.16,2.25Z"/>
      </g>
    </g>
  </g>
</svg>