<?xml version="1.0" encoding="UTF-8"?>
<svg id="Layer_2" data-name="Layer 2" xmlns="http://www.w3.org/2000/svg" xmlns:xlink="http://www.w3.org/1999/xlink" viewBox="0 0 293.95 293.95">
  <defs>
    <style>
      .cls-1, .cls-2, .cls-3, .cls-4, .cls-5 {
        fill: #231f20;
      }

      .cls-1, .cls-6 {
        stroke: #231f20;
        stroke-miterlimit: 10;
      }

      .cls-7 {
        filter: url(#drop-shadow-1);
      }

      .cls-7, .cls-8, .cls-9, .cls-10, .cls-11 {
        stroke-width: 0px;
      }

      .cls-2 {
        filter: url(#outer-glow-2);
      }

      .cls-2, .cls-3 {
        font-size: 33px;
      }

      .cls-2, .cls-3, .cls-4, .cls-5 {
        font-family: Rockwell-Bold, Rockwell;
        font-weight: 700;
      }

      .cls-6 {
        fill: none;
        stroke-width: 11px;
      }

      .cls-4 {
        filter: url(#outer-glow-3);
      }

      .cls-4, .cls-5 {
        font-size: 32.39px;
      }

      .cls-8 {
        fill: #414042;
      }

      .cls-9 {
        fill: #cc2228;
      }

      .cls-10 {
        fill: #fbd209;
      }

      .cls-11 {
        fill: #fff;
      }
    </style>
    <filter id="drop-shadow-1" filterUnits="userSpaceOnUse">
      <feOffset dx="7" dy="7"/>
      <feGaussianBlur result="blur" stdDeviation="5"/>
      <feFlood flood-color="#231f20" flood-opacity=".75"/>
      <feComposite in2="blur" operator="in"/>
      <feComposite in="SourceGraphic"/>
    </filter>
    <filter id="outer-glow-2" filterUnits="userSpaceOnUse">
      <feOffset dx="0" dy="0"/>
      <feGaussianBlur result="blur-2" stdDeviation="1"/>
      <feFlood flood-color="#000" flood-opacity=".3"/>
      <feComposite in2="blur-2" operator="in"/>
      <feComposite in="SourceGraphic"/>
    </filter>
    <filter id="outer-glow-3" filterUnits="userSpaceOnUse">
      <feOffset dx="0" dy="0"/>
      <feGaussianBlur result="blur-3" stdDeviation="1"/>
      <feFlood flood-color="#000" flood-opacity=".3"/>
      <feComposite in2="blur-3" operator="in"/>
      <feComposite in="SourceGraphic"/>
    </filter>
  </defs>
  <g id="Layer_1-2" data-name="Layer 1">
    <g>
      <g>
        <path class="cls-7" d="m172.07,124.1c-9.48,0-18.19,3.33-25.05,8.89-6.86-5.56-15.57-8.89-25.05-8.89-11.75,0-22.32,5.11-29.64,13.24v13.19c0,29.67,24.51,53.73,54.75,53.73h0c30.24,0,54.75-24.05,54.75-53.73v-13.07c-7.33-8.2-17.94-13.37-29.75-13.37Z"/>
        <path class="cls-10" d="m92.53,89.79c-.08-.04-.17-.07-.25-.1-.09,1.44-.16,2.89-.16,4.36v43.37s.05-.05.08-.08v-41.71c0-1.97.12-3.92.33-5.83Z"/>
        <path class="cls-10" d="m201.62,89.69c-.08.04-.17.07-.25.1.21,1.92.33,3.86.33,5.83v41.83s.05.06.08.08v-43.5c0-1.47-.06-2.92-.16-4.36Z"/>
        <path class="cls-10" d="m201.37,89.79c-14.4,6.31-33.48,10.15-54.42,10.15s-40.02-3.84-54.42-10.15c-.21,1.92-.33,3.86-.33,5.83v41.71c7.32-8.13,17.89-13.24,29.64-13.24,9.48,0,18.19,3.33,25.05,8.89,6.86-5.56,15.57-8.89,25.05-8.89,11.81,0,22.42,5.16,29.75,13.37v-41.83c0-1.97-.12-3.92-.33-5.83Zm-54.42,36.29c-4.17,0-7.55-3.32-7.55-7.41s3.38-7.41,7.55-7.41,7.55,3.32,7.55,7.41-3.38,7.41-7.55,7.41Z"/>
        <ellipse class="cls-9" cx="147.31" cy="118.67" rx="7.55" ry="7.41"/>
        <g>
          <path class="cls-11" d="m165.28,171.47c-.39-.2-.67-.53-.82-.88-.18-.36-.2-.73-.11-1.09.22-.69.95-1.23,1.85-1.16.85.06,1.52,1,1.2,2.05-.14.51-.51.9-.88,1.09-.41.19-.85.18-1.24-.02Z"/>
          <path class="cls-11" d="m162.61,174.74c-.52-.71-.46-1.64.02-2.18.5-.53,1.42-.67,2.17-.23.76.45.92,1.57.18,2.37-.73.8-1.86.75-2.38.04Z"/>
          <path class="cls-11" d="m158.78,176.53c-.16-.87.28-1.69.96-1.96.67-.28,1.57,0,2.06.72.49.73.15,1.8-.85,2.22-1.01.4-2-.13-2.16-.99Z"/>
          <path class="cls-11" d="m154.56,176.53c.21-.85.97-1.4,1.7-1.38.73.04,1.43.67,1.56,1.54.05.44-.09.87-.4,1.16-.31.3-.79.52-1.31.48-1.08-.05-1.76-.95-1.54-1.8Z"/>
          <path class="cls-11" d="m150.73,174.74c.56-.68,1.48-.86,2.12-.51.65.33,1.01,1.2.76,2.04-.25.84-1.29,1.26-2.26.77-.95-.52-1.18-1.63-.62-2.3Z"/>
          <path class="cls-11" d="m148.06,171.47c.79-.36,1.69-.13,2.13.45.22.31.3.67.28,1.06-.04.39-.18.8-.48,1.12-.31.32-.72.48-1.15.43-.44-.04-.9-.28-1.21-.72-.65-.87-.38-1.97.43-2.34Z"/>
          <path class="cls-11" d="m147.09,167.36c.44,0,.85.18,1.15.42.29.25.51.56.57.93.05.37,0,.73-.23,1.07-.19.33-.5.63-.91.79-.41.15-.86.11-1.24-.12-.35-.24-.68-.65-.76-1.18-.09-.52.03-1.03.31-1.37.27-.35.66-.54,1.1-.54Z"/>
          <path class="cls-11" d="m148.06,163.25c.39.2.67.53.82.88.18.36.2.73.11,1.09-.22.69-.95,1.23-1.85,1.16-.85-.06-1.52-1-1.2-2.05.14-.51.51-.9.88-1.09.41-.19.85-.18,1.24.02Z"/>
          <path class="cls-11" d="m150.73,159.99c.52.71.46,1.64-.02,2.18-.5.53-1.42.67-2.17.23-.76-.45-.92-1.57-.18-2.37.73-.8,1.86-.75,2.38-.04Z"/>
          <path class="cls-11" d="m154.56,158.19c.16.87-.28,1.69-.96,1.96-.67.28-1.57,0-2.06-.72-.49-.73-.15-1.8.85-2.22,1.01-.4,2,.13,2.16.99Z"/>
          <path class="cls-11" d="m158.78,158.19c-.21.85-.97,1.4-1.7,1.38-.73-.04-1.43-.67-1.56-1.54-.05-.44.09-.87.4-1.16.31-.3.79-.52,1.31-.48,1.08.05,1.76.95,1.54,1.8Z"/>
          <path class="cls-11" d="m162.61,159.99c-.56.68-1.48.86-2.12.51-.65-.33-1.01-1.2-.76-2.04.25-.84,1.29-1.26,2.26-.77.95.52,1.18,1.63.62,2.3Z"/>
          <path class="cls-11" d="m165.28,163.25c-.79.36-1.69.13-2.13-.45-.22-.31-.3-.67-.28-1.06.04-.39.18-.8.48-1.12.31-.32.72-.48,1.15-.43.44.04.9.28,1.21.72.65.87.38,1.97-.43,2.34Z"/>
          <path class="cls-11" d="m166.25,167.36c-.44,0-.85-.18-1.15-.42-.29-.25-.51-.56-.57-.93-.05-.37,0-.73.23-1.07.19-.33.5-.63.91-.79.41-.15.86-.11,1.24.12.35.24.68.65.76,1.18.09.52-.03,1.03-.31,1.37-.27.35-.66.54-1.1.54Z"/>
        </g>
        <g>
          <g>
            <path class="cls-11" d="m133.83,143.87c-10.42,8.46-17.2,8.42-26.92.35,6.42-10.66,17.56-11.02,26.92-.35Z"/>
            <circle class="cls-1" cx="120.37" cy="143.14" r="5.41"/>
          </g>
          <g>
            <path class="cls-11" d="m187.71,143.87c-10.42,8.46-17.2,8.42-26.92.35,6.42-10.66,17.56-11.02,26.92-.35Z"/>
            <circle class="cls-1" cx="174.25" cy="143.14" r="5.41"/>
          </g>
        </g>
        <path class="cls-10" d="m146.93,166.39l6.56-6.16c.52-.49.74-1.22.57-1.91l-4.63-19.23c-.1-.42-.12-.86-.06-1.29l.97-7.04c.16-1.19-.76-2.25-1.96-2.25h-2.75c-1.24,0-2.18,1.13-1.95,2.35l1.28,6.83c.1.51.08,1.03-.06,1.53l-5.05,19.09c-.19.7.03,1.45.56,1.95l6.52,6.14"/>
      </g>
      <circle class="cls-6" cx="146.97" cy="146.97" r="141.47"/>
      <text class="cls-2" transform="translate(54.74 186.77) rotate(-106.39)"><tspan x="0" y="0">T</tspan></text>
      <text class="cls-3" transform="translate(47 164.47) rotate(-89.07)"><tspan x="0" y="0">W</tspan></text>
      <text class="cls-3" transform="translate(47.59 132.17) rotate(-74.42)"><tspan x="0" y="0">A</tspan></text>
      <text class="cls-3" transform="translate(54.12 108.35) rotate(-59.91)"><tspan x="0" y="0">R</tspan></text>
      <text class="cls-3" transform="translate(67.8 85.96) rotate(-48.16)"><tspan x="0" y="0">I</tspan></text>
      <text class="cls-3" transform="translate(77.48 74.5) rotate(-36.92)"><tspan x="0" y="0">T</tspan></text>
      <text class="cls-3" transform="translate(94.77 61.11) rotate(-24.2)"><tspan x="0" y="0">A</tspan></text>
      <text class="cls-3" transform="translate(118.31 51.36) rotate(-14.07)"><tspan x="0" y="0"> </tspan></text>
      <text class="cls-3" transform="translate(127.47 48.47) rotate(-4.31)"><tspan x="0" y="0">E</tspan></text>
      <text class="cls-3" transform="translate(151.06 46.5) rotate(9.81)"><tspan x="0" y="0">X</tspan></text>
      <text class="cls-3" transform="translate(176.83 51.08) rotate(24.15)"><tspan x="0" y="0">E</tspan></text>
      <text class="cls-3" transform="translate(198.47 60.46) rotate(38.78)"><tspan x="0" y="0">C</tspan></text>
      <text class="cls-3" transform="translate(219.87 77.91) rotate(53.42)"><tspan x="0" y="0">U</tspan></text>
      <text class="cls-3" transform="translate(234.22 97.21) rotate(67.19)"><tspan x="0" y="0">T</tspan></text>
      <text class="cls-3" transform="translate(243.24 119.96) rotate(78.59)"><tspan x="0" y="0">I</tspan></text>
      <text class="cls-3" transform="translate(246.86 134.34) rotate(90.93)"><tspan x="0" y="0">V</tspan></text>
      <text class="cls-3" transform="translate(246.62 159.34) rotate(103.85)"><tspan x="0" y="0">E</tspan></text>
      <text class="cls-3" transform="translate(240.12 182.86) rotate(113.67)"><tspan x="0" y="0"> </tspan></text>
      <text class="cls-4" transform="translate(73.78 247.39) rotate(30.97)"><tspan x="0" y="0">L</tspan></text>
      <text class="cls-5" transform="translate(99.43 262.25) rotate(15.48)"><tspan x="0" y="0">O</tspan></text>
      <text class="cls-5" transform="translate(135.04 270.94) rotate(-.93)"><tspan x="0" y="0">D</tspan></text>
      <text class="cls-5" transform="translate(170.28 269.44) rotate(-17.59)"><tspan x="0" y="0">G</tspan></text>
      <text class="cls-5" transform="translate(204.24 257.33) rotate(-32.88)"><tspan x="0" y="0">E</tspan></text>
      <circle class="cls-9" cx="236.96" cy="214.83" r="9.57"/>
      <circle class="cls-9" cx="59.46" cy="214.83" r="9.57"/>
      <path class="cls-8" d="m230.56,146.97c-.03,17.41-5.47,34.44-15.58,48.62-9.66,13.57-23.54,24.17-39.19,29.87-16.54,6.03-34.81,6.72-51.74,1.91-16.31-4.64-30.89-14.3-41.69-27.35s-17.44-29.51-18.73-46.41c-1.33-17.48,2.78-35.07,11.89-50.06,8.74-14.37,21.77-25.85,37.07-32.82,15.83-7.21,34.03-9.18,51.06-5.7,16.68,3.41,32.03,11.92,43.79,24.23s19.5,28.07,22.15,44.88c.67,4.24.95,8.54.96,12.83,0,3.22,5.01,3.22,5,0-.04-18.23-5.67-36.28-16.26-51.15s-25.13-25.92-42.03-32.11c-17.37-6.37-36.77-7.02-54.56-1.97-17.18,4.88-32.77,15.08-44.1,28.89s-18.59,31.48-19.98,49.69c-1.4,18.29,3.04,36.91,12.57,52.58s23,27.46,39.17,34.75c17.01,7.67,36.15,9.81,54.44,6.1,17.52-3.55,33.82-12.63,46.17-25.55,12.39-12.97,20.76-29.67,23.49-47.42.7-4.58,1.08-9.19,1.09-13.82,0-3.22-4.99-3.22-5,0Z"/>
    </g>
  </g>
</svg>