<?xml version="1.0" encoding="UTF-8"?>
<svg id="Layer_2" data-name="Layer 2" xmlns="http://www.w3.org/2000/svg" xmlns:xlink="http://www.w3.org/1999/xlink" viewBox="0 0 355.22 300.38">
  <defs>
    <style>
      .cls-1 {
        stroke-width: 11px;
      }

      .cls-1, .cls-2, .cls-3 {
        fill: #fff;
      }

      .cls-1, .cls-4, .cls-5 {
        stroke-miterlimit: 10;
      }

      .cls-1, .cls-5 {
        stroke: #231f20;
      }

      .cls-2 {
        font-family: Apple-Chancery, 'Apple Chancery';
        font-size: 13px;
      }

      .cls-4 {
        stroke: #fff;
        stroke-width: 2px;
      }

      .cls-4, .cls-5, .cls-6 {
        fill: #231f20;
      }

      .cls-7 {
        letter-spacing: -.05em;
      }

      .cls-8 {
        filter: url(#drop-shadow-1);
      }

      .cls-8, .cls-6, .cls-9, .cls-10, .cls-3 {
        stroke-width: 0px;
      }

      .cls-11 {
        filter: url(#outer-glow-2);
      }

      .cls-11, .cls-12 {
        fill: #414042;
        font-family: Rockwell-Bold, Rockwell;
        font-size: 26px;
        font-weight: 700;
      }

      .cls-13 {
        letter-spacing: 0em;
      }

      .cls-9 {
        fill: #cc2228;
      }

      .cls-10 {
        fill: #fbd209;
      }
    </style>
    <filter id="drop-shadow-1" filterUnits="userSpaceOnUse">
      <feOffset dx="7" dy="7"/>
      <feGaussianBlur result="blur" stdDeviation="5"/>
      <feFlood flood-color="#231f20" flood-opacity=".75"/>
      <feComposite in2="blur" operator="in"/>
      <feComposite in="SourceGraphic"/>
    </filter>
    <filter id="outer-glow-2" filterUnits="userSpaceOnUse">
      <feOffset dx="0" dy="0"/>
      <feGaussianBlur result="blur-2" stdDeviation="1"/>
      <feFlood flood-color="#000" flood-opacity=".3"/>
      <feComposite in2="blur-2" operator="in"/>
      <feComposite in="SourceGraphic"/>
    </filter>
  </defs>
  <g id="Layer_1-2" data-name="Layer 1">
    <g>
      <g>
        <polygon class="cls-6" points="99.79 236.43 99.79 280.93 0 280.93 18.53 258.69 0 236.43 99.79 236.43"/>
        <circle class="cls-3" cx="42.02" cy="258.68" r="9.57"/>
      </g>
      <g>
        <polygon class="cls-6" points="255.43 236.43 255.43 280.93 355.22 280.93 336.69 258.69 355.22 236.43 255.43 236.43"/>
        <circle class="cls-3" cx="313.2" cy="258.68" r="9.57"/>
      </g>
      <circle class="cls-1" cx="178" cy="146.97" r="141.47"/>
      <g>
        <path class="cls-8" d="m203.12,124.1c-9.48,0-18.19,3.33-25.05,8.89-6.86-5.56-15.57-8.89-25.05-8.89-11.75,0-22.32,5.11-29.64,13.24v13.19c0,29.67,24.51,53.73,54.75,53.73h0c30.24,0,54.75-24.05,54.75-53.73v-13.07c-7.33-8.2-17.94-13.37-29.75-13.37Z"/>
        <path class="cls-10" d="m123.57,89.79c-.08-.04-.17-.07-.25-.1-.09,1.44-.16,2.89-.16,4.36v43.37s.05-.05.08-.08v-41.71c0-1.97.12-3.92.33-5.83Z"/>
        <path class="cls-10" d="m232.67,89.69c-.08.04-.17.07-.25.1.21,1.92.33,3.86.33,5.83v41.83s.05.06.08.08v-43.5c0-1.47-.06-2.92-.16-4.36Z"/>
        <path class="cls-10" d="m232.42,89.79c-14.4,6.31-33.48,10.15-54.42,10.15s-40.02-3.84-54.42-10.15c-.21,1.92-.33,3.86-.33,5.83v41.71c7.32-8.13,17.89-13.24,29.64-13.24,9.48,0,18.19,3.33,25.05,8.89,6.86-5.56,15.57-8.89,25.05-8.89,11.81,0,22.42,5.16,29.75,13.37v-41.83c0-1.97-.12-3.92-.33-5.83Zm-54.42,36.29c-4.17,0-7.55-3.32-7.55-7.41s3.38-7.41,7.55-7.41,7.55,3.32,7.55,7.41-3.38,7.41-7.55,7.41Z"/>
        <ellipse class="cls-9" cx="178.36" cy="118.67" rx="7.55" ry="7.41"/>
        <g>
          <path class="cls-3" d="m196.33,171.47c-.39-.2-.67-.53-.82-.88-.18-.36-.2-.73-.11-1.09.22-.69.95-1.23,1.85-1.16.85.06,1.52,1,1.2,2.05-.14.51-.51.9-.88,1.09-.41.19-.85.18-1.24-.02Z"/>
          <path class="cls-3" d="m193.65,174.74c-.52-.71-.46-1.64.02-2.18.5-.53,1.42-.67,2.17-.23.76.45.92,1.57.18,2.37-.73.8-1.86.75-2.38.04Z"/>
          <path class="cls-3" d="m189.83,176.53c-.17-.87.28-1.68.96-1.96.67-.28,1.57,0,2.06.72.49.73.15,1.8-.85,2.22-1.01.4-2-.13-2.16-.99Z"/>
          <path class="cls-3" d="m185.6,176.53c.21-.85.97-1.4,1.7-1.38.73.04,1.43.67,1.56,1.54.05.44-.09.87-.4,1.16-.31.3-.79.52-1.31.48-1.08-.05-1.76-.95-1.54-1.8Z"/>
          <path class="cls-3" d="m181.78,174.74c.56-.68,1.48-.86,2.12-.51.65.33,1.01,1.2.76,2.04-.25.84-1.29,1.26-2.26.77-.95-.52-1.18-1.63-.62-2.3Z"/>
          <path class="cls-3" d="m179.11,171.47c.79-.36,1.69-.13,2.13.45.22.31.3.67.28,1.06-.04.39-.18.8-.48,1.12-.31.32-.72.48-1.15.43-.44-.04-.9-.28-1.21-.72-.65-.87-.38-1.97.43-2.34Z"/>
          <path class="cls-3" d="m178.13,167.36c.44,0,.85.18,1.15.42.29.25.51.56.57.93.05.37,0,.73-.23,1.07-.19.33-.5.63-.91.79-.41.15-.86.11-1.24-.12-.35-.24-.68-.65-.76-1.18-.09-.52.03-1.03.31-1.37.27-.35.66-.54,1.1-.54Z"/>
          <path class="cls-3" d="m179.11,163.25c.39.2.67.53.82.88.18.36.2.73.11,1.09-.22.69-.95,1.23-1.85,1.16-.85-.06-1.52-1-1.2-2.05.14-.51.51-.9.88-1.09.41-.19.85-.18,1.24.02Z"/>
          <path class="cls-3" d="m181.78,159.99c.52.71.46,1.64-.02,2.18-.5.53-1.42.67-2.17.23-.76-.45-.92-1.57-.18-2.37.73-.8,1.86-.75,2.38-.04Z"/>
          <path class="cls-3" d="m185.6,158.19c.16.87-.28,1.69-.96,1.96-.67.28-1.57,0-2.06-.72-.49-.73-.15-1.8.85-2.22,1.01-.4,2,.13,2.16.99Z"/>
          <path class="cls-3" d="m189.83,158.19c-.21.85-.97,1.4-1.7,1.38-.73-.04-1.43-.67-1.56-1.54-.05-.44.09-.87.4-1.16.31-.3.79-.52,1.31-.48,1.08.05,1.76.95,1.54,1.8Z"/>
          <path class="cls-3" d="m193.65,159.99c-.56.68-1.48.86-2.12.51-.65-.33-1.01-1.2-.76-2.04.25-.84,1.29-1.26,2.26-.77.95.52,1.18,1.63.62,2.3Z"/>
          <path class="cls-3" d="m196.33,163.25c-.79.36-1.69.13-2.13-.45-.22-.31-.3-.67-.28-1.06.04-.39.18-.8.48-1.12.31-.32.72-.48,1.15-.43.44.04.9.28,1.21.72.65.87.38,1.97-.43,2.34Z"/>
          <path class="cls-3" d="m197.3,167.36c-.44,0-.85-.18-1.15-.42-.29-.25-.51-.56-.57-.93-.05-.37,0-.73.23-1.07.19-.33.5-.63.91-.79.41-.15.86-.11,1.24.12.35.24.68.65.76,1.18.09.52-.03,1.03-.31,1.37-.27.35-.66.54-1.1.54Z"/>
        </g>
        <g>
          <g>
            <path class="cls-3" d="m164.88,143.87c-10.42,8.46-17.2,8.42-26.92.35,6.42-10.66,17.56-11.02,26.92-.35Z"/>
            <circle class="cls-5" cx="151.42" cy="143.14" r="5.41"/>
          </g>
          <g>
            <path class="cls-3" d="m218.76,143.87c-10.42,8.46-17.2,8.42-26.92.35,6.42-10.66,17.56-11.02,26.92-.35Z"/>
            <circle class="cls-5" cx="205.3" cy="143.14" r="5.41"/>
          </g>
        </g>
        <path class="cls-10" d="m177.97,166.39l6.56-6.16c.52-.49.74-1.22.57-1.91l-4.63-19.23c-.1-.42-.12-.86-.06-1.29l.97-7.04c.16-1.19-.76-2.25-1.96-2.25h-2.75c-1.24,0-2.18,1.13-1.95,2.35l1.28,6.83c.1.51.08,1.03-.06,1.53l-5.05,19.09c-.19.7.03,1.45.56,1.95l6.52,6.14"/>
      </g>
      <text class="cls-11" transform="translate(88.78 197.85) rotate(-114.4)"><tspan x="0" y="0">T</tspan></text>
      <text class="cls-12" transform="translate(80.42 180.66) rotate(-101.21)"><tspan x="0" y="0">W</tspan></text>
      <text class="cls-12" transform="translate(75.61 155.25) rotate(-89.07)"><tspan x="0" y="0">A</tspan></text>
      <text class="cls-12" transform="translate(75.89 135.33) rotate(-77.82)"><tspan x="0" y="0">R</tspan></text>
      <text class="cls-12" transform="translate(80.74 114.81) rotate(-68.46)"><tspan x="0" y="0">I</tspan></text>
      <text class="cls-12" transform="translate(84.98 103.4) rotate(-59.52)"><tspan x="0" y="0">T</tspan></text>
      <text class="cls-12" transform="translate(93.81 88.12) rotate(-49.53)"><tspan x="0" y="0">A</tspan></text>
      <text class="cls-12" transform="translate(107.43 72.9) rotate(-41.67)"><tspan x="0" y="0"> </tspan></text>
      <text class="cls-12" transform="translate(113.12 67.38) rotate(-34)"><tspan x="0" y="0">E</tspan></text>
      <text class="cls-12" transform="translate(128.89 56.65) rotate(-22.75)"><tspan x="0" y="0">X</tspan></text>
      <text class="cls-12" transform="translate(148.38 48.62) rotate(-11.45)"><tspan x="0" y="0">E</tspan></text>
      <text class="cls-12" transform="translate(166.88 44.53) rotate(.93)"><tspan x="0" y="0">C</tspan></text>
      <text class="cls-12" transform="translate(189.25 44.87) rotate(11.54)"><tspan x="0" y="0">U</tspan></text>
      <text class="cls-12" transform="translate(208.25 48.78) rotate(22.47)"><tspan x="0" y="0">T</tspan></text>
      <text class="cls-12" transform="translate(226.31 56.62) rotate(31.41)"><tspan x="0" y="0">I</tspan></text>
      <text class="cls-12" transform="translate(236.83 62.73) rotate(40.44)"><tspan x="0" y="0">V</tspan></text>
      <text class="cls-12" transform="translate(252 75.76) rotate(51.3)"><tspan x="0" y="0">E</tspan></text>
      <text class="cls-12" transform="translate(263.91 91.33) rotate(58.98)"><tspan x="0" y="0"> </tspan></text>
      <text class="cls-12" transform="translate(268.23 97.94) rotate(66.46)"><tspan x="0" y="0">L</tspan></text>
      <text class="cls-12" transform="translate(276.06 115.38) rotate(78.92)"><tspan x="0" y="0">O</tspan></text>
      <text class="cls-12" transform="translate(280.61 139.48) rotate(92.01)"><tspan x="0" y="0">D</tspan></text>
      <text class="cls-12" transform="translate(279.78 162.75) rotate(105.41)"><tspan x="0" y="0">G</tspan></text>
      <text class="cls-12" transform="translate(272.99 186.13) rotate(117.71)"><tspan x="0" y="0">E</tspan></text>
      <text class="cls-12" transform="translate(262.95 204.06) rotate(125.93)"><tspan x="0" y="0"> </tspan></text>
      <path class="cls-6" d="m261.61,146.97c-.03,17.41-5.47,34.44-15.58,48.62s-23.54,24.17-39.19,29.87c-16.54,6.03-34.81,6.72-51.74,1.91-16.31-4.64-30.89-14.3-41.69-27.35-10.8-13.06-17.44-29.51-18.73-46.41-1.33-17.48,2.78-35.07,11.89-50.06,8.74-14.37,21.77-25.85,37.07-32.82,15.83-7.21,34.03-9.18,51.06-5.7,16.68,3.41,32.03,11.92,43.79,24.23,11.76,12.3,19.5,28.07,22.15,44.88.67,4.24.95,8.54.96,12.83,0,3.22,5.01,3.22,5,0-.04-18.23-5.67-36.28-16.26-51.15s-25.13-25.92-42.03-32.11c-17.37-6.37-36.77-7.02-54.56-1.97s-32.77,15.08-44.1,28.89c-11.58,14.11-18.59,31.48-19.98,49.69-1.4,18.29,3.04,36.91,12.57,52.58,9.21,15.14,23,27.46,39.17,34.75,17.01,7.67,36.15,9.81,54.44,6.1s33.82-12.63,46.17-25.55c12.39-12.97,20.76-29.67,23.49-47.42.7-4.58,1.08-9.19,1.09-13.82,0-3.22-4.99-3.22-5,0Z"/>
      <rect class="cls-4" x="73.54" y="249.11" width="208.9" height="50.27"/>
      <text class="cls-2" transform="translate(85.45 278.76)"><tspan class="cls-7" x="0" y="0">Y</tspan><tspan class="cls-13" x="7.75" y="0">our Destination, Our Dedication</tspan></text>
      <circle class="cls-9" cx="97.66" cy="228.15" r="9.57"/>
      <circle class="cls-9" cx="255.43" cy="228.15" r="9.57"/>
    </g>
  </g>
</svg>